<svg xmlns="http://www.w3.org/2000/svg" width="97.99" height="94.101" viewBox="0 0 97.99 94.101">
  <g id="Group_3696" data-name="Group 3696" transform="translate(1.592 1.527)">
    <g id="Group_801" data-name="Group 801" transform="translate(1.559 0) rotate(1)">
      <path id="Path_6202" data-name="Path 6202" d="M46.631,77.1,24.775,88.59a6.421,6.421,0,0,1-9.317-6.766l4.174-24.342L1.949,40.237A6.425,6.425,0,0,1,5.5,29.279l24.444-3.544L40.872,3.585a6.418,6.418,0,0,1,11.518,0l10.926,22.15,24.444,3.544a6.426,6.426,0,0,1,3.558,10.958L73.631,57.482,77.8,81.824a6.42,6.42,0,0,1-9.317,6.766Z" transform="translate(0 0)" fill="#e2e2e2" stroke="#e5e5e5" stroke-width="3"/>
    </g>
  </g>
</svg>
