<svg width="208" height="211" viewBox="0 0 208 211" fill="none" xmlns="http://www.w3.org/2000/svg">
<rect x="0.851562" width="206.972" height="211" rx="102.5" fill="#00C979"/>
<path d="M144.223 87.6278L122.191 63.6014C121.839 63.2184 121.387 62.9546 120.891 62.8437C120.395 62.7329 119.88 62.7801 119.41 62.9793C118.94 63.1785 118.537 63.5207 118.254 63.9618C117.97 64.403 117.819 64.923 117.819 65.4552V77.0247H116.972C108.208 77.0314 99.8049 80.6904 93.6075 87.1982C87.41 93.7061 83.9251 102.531 83.918 111.735V117.073C83.9222 117.673 84.1212 118.253 84.4821 118.718C84.843 119.183 85.3441 119.505 85.9027 119.63C86.0856 119.678 86.2735 119.702 86.462 119.701C86.9446 119.696 87.4164 119.551 87.8259 119.283C88.2354 119.014 88.5667 118.633 88.7835 118.18C91.0906 113.29 94.6567 109.176 99.0772 106.307C103.498 103.437 108.595 101.926 113.792 101.945H117.819V113.513C117.819 114.045 117.971 114.564 118.255 115.005C118.539 115.446 118.941 115.787 119.411 115.986C119.881 116.185 120.396 116.232 120.892 116.121C121.387 116.01 121.84 115.746 122.191 115.363L144.223 91.3338C144.68 90.8362 144.935 90.1719 144.935 89.4808C144.935 88.7897 144.68 88.1254 144.223 87.6278Z" fill="white"/>
<path d="M135.185 148.192H74.1746C71.4777 148.19 68.8916 147.065 66.984 145.062C65.0764 143.06 64.0032 140.345 64 137.513V87.6742C64.0044 84.8427 65.0781 82.1287 66.9856 80.1276C68.893 78.1265 71.4785 77.0017 74.1746 77H84.3433C85.2421 77 86.1041 77.375 86.7397 78.0424C87.3752 78.7099 87.7323 79.6152 87.7323 80.5591C87.7323 81.5031 87.3752 82.4083 86.7397 83.0758C86.1041 83.7433 85.2421 84.1182 84.3433 84.1182H74.1746C73.2762 84.1182 72.4145 84.4927 71.7788 85.1595C71.143 85.8262 70.7853 86.7307 70.7841 87.6742V137.508C70.7841 138.452 71.1413 139.358 71.7772 140.026C72.413 140.694 73.2754 141.069 74.1746 141.069H135.185C136.084 141.068 136.946 140.693 137.581 140.025C138.217 139.358 138.574 138.452 138.574 137.508V109.037C138.574 108.093 138.931 107.187 139.567 106.52C140.202 105.852 141.065 105.477 141.964 105.477C142.863 105.477 143.725 105.852 144.361 106.52C144.996 107.187 145.353 108.093 145.353 109.037V137.513C145.35 140.344 144.278 143.058 142.372 145.06C140.465 147.062 137.881 148.188 135.185 148.192Z" fill="white"/>
</svg>
