<svg width="135" height="135" viewBox="0 0 135 135" fill="none" xmlns="http://www.w3.org/2000/svg">
<rect width="135" height="135" rx="26" fill="#202020"/>
<path d="M62.0566 67.5492L84.9037 44.7011C85.5328 44.0735 85.8789 43.2344 85.8789 42.3396C85.8789 41.4444 85.5328 40.6058 84.9037 39.9772L82.9017 37.9762C82.2736 37.3466 81.434 37 80.5393 37C79.6445 37 78.8059 37.3466 78.1773 37.9762L50.9742 65.1788C50.3431 65.8094 49.9975 66.652 50 67.5477C49.9975 68.4474 50.3426 69.289 50.9742 69.9201L78.152 97.0964C78.7806 97.726 79.6192 98.0726 80.5144 98.0726C81.4092 98.0726 82.2478 97.726 82.8769 97.0964L84.8784 95.0954C86.1808 93.793 86.1808 91.6729 84.8784 90.371L62.0566 67.5492Z" fill="white"/>
</svg>
