<svg width="104" height="99" viewBox="0 0 104 99" fill="none" xmlns="http://www.w3.org/2000/svg">
<path d="M103.055 49.1948C102.782 51.014 102.144 52.7593 101.18 54.3263C100.216 55.8933 98.9466 57.2499 97.4465 58.3148C95.8795 59.5653 94.5774 61.1155 93.6161 62.8748C93.3016 64.9751 93.4258 67.1177 93.9809 69.1676C94.5476 70.8499 94.771 72.6288 94.6378 74.399C94.5046 76.1691 94.0177 77.8946 93.2057 79.4732C90.6352 82.0227 87.1589 83.4493 83.5385 83.4404C81.4476 83.5431 79.3996 84.0706 77.5193 84.9908C76.0735 86.475 74.9551 88.2459 74.2361 90.1892C72.6857 93.4268 70.9529 97.0748 67.4417 98.2148C65.7043 98.4911 63.929 98.4155 62.2214 97.9925C60.5137 97.5695 58.9085 96.8077 57.5009 95.7524C55.6966 94.5634 53.6606 93.7708 51.5273 93.4268C49.394 93.7708 47.358 94.5634 45.5537 95.7524C43.1969 97.2884 40.5085 98.2418 37.7105 98.534C36.9835 98.5445 36.2597 98.4367 35.5673 98.2148C32.1017 97.0748 30.3689 93.4268 28.8185 90.1892C28.0995 88.2459 26.9811 86.475 25.5353 84.9908C23.6584 84.0548 21.6102 83.5117 19.5161 83.3948C15.8957 83.4037 12.4194 81.9771 9.8489 79.4276C9.03692 77.849 8.54994 76.1235 8.41679 74.3534C8.28363 72.5832 8.50701 70.8043 9.0737 69.122C9.62881 67.0721 9.75302 64.9295 9.4385 62.8292C8.47721 61.0699 7.17507 59.5197 5.6081 58.2692C4.39633 57.2167 2.53024 48.4485 1.52734 47.1953L55.5273 64.6953L90.0273 31.1953L97.4465 40.2116C98.9315 41.261 100.192 42.596 101.155 44.1384C102.118 45.6809 102.764 47.3998 103.055 49.1948Z" fill="#25D360" fill-opacity="0.32"/>
<path d="M71.7745 38.8906C69.4547 38.8906 67.7148 41.0489 68.2438 43.3356L59.2768 47.2281L54.5632 39.3721C55.3352 38.7074 55.8247 37.7236 55.8247 36.625C55.8247 34.6229 54.2017 33 52.1997 33C50.1978 33 48.5748 34.6229 48.5748 36.625C48.5748 37.7236 49.0642 38.7074 49.8362 39.3721L45.1226 47.2281L36.1557 43.3356C36.6848 41.0484 34.9444 38.8906 32.625 38.8906C30.623 38.8906 29 40.5135 29 42.5155C29 44.7302 30.9699 46.4314 33.1701 46.0996L36.6562 60.0966H43.5905V57.6497C43.5905 56.899 44.1991 56.2904 44.9498 56.2904C45.7005 56.2904 46.3092 56.899 46.3092 57.6497V60.0966H50.8404V55.4747C50.8404 54.724 51.449 54.1154 52.1997 54.1154C52.9505 54.1154 53.5591 54.724 53.5591 55.4747V60.0966H58.0903V57.6497C58.0903 56.899 58.6989 56.2904 59.4497 56.2904C60.2004 56.2904 60.809 56.899 60.809 57.6497V60.0966H67.7434L71.2295 46.0996C73.428 46.4312 75.3995 44.7316 75.3995 42.5155C75.3995 40.5135 73.7765 38.8906 71.7745 38.8906ZM37.0655 66.3496C37.0655 67.1004 37.6742 67.709 38.4249 67.709H65.9746C66.7253 67.709 67.3339 67.1004 67.3339 66.3496V62.8153H37.0655V66.3496Z" fill="#25D360"/>
<path d="M37.7112 98.5343C36.9842 98.5449 36.2604 98.4371 35.568 98.2151C32.1024 97.0751 30.3696 93.4271 28.8192 90.1895C28.1002 88.2463 26.9818 86.4754 25.536 84.9912C23.6591 84.0552 21.6109 83.5121 19.5168 83.3951C15.8964 83.4041 12.4201 81.9775 9.8496 79.4279C9.03763 77.8494 8.55064 76.1239 8.41749 74.3537C8.28434 72.5835 8.50771 70.8046 9.0744 69.1224C9.62952 67.0725 9.75373 64.9298 9.4392 62.8295C8.47791 61.0702 7.17577 59.5201 5.6088 58.2695C4.10872 57.2046 2.83884 55.8481 1.87512 54.2811C0.911404 52.714 0.273647 50.9687 0 49.1495C0.273647 47.3304 0.911404 45.5851 1.87512 44.018C2.83884 42.451 4.10872 41.0945 5.6088 40.0295C7.17577 38.779 8.47791 37.2288 9.4392 35.4695C9.75373 33.3693 9.62952 31.2266 9.0744 29.1767C8.50771 27.4945 8.28434 25.7156 8.41749 23.9454C8.55064 22.1752 9.03763 20.4497 9.8496 18.8711C12.4349 16.355 15.9094 14.9619 19.5168 14.9951C21.6109 14.8782 23.6591 14.3352 25.536 13.3991C26.9818 11.9149 28.1002 10.144 28.8192 8.20075C30.3696 4.96315 32.1024 1.31515 35.568 0.175149C37.3054 -0.101165 39.0807 -0.0255807 40.7883 0.397416C42.496 0.820413 44.1012 1.5822 45.5088 2.63755C47.3131 3.82651 49.3491 4.61916 51.4824 4.96315C53.6157 4.61916 55.6517 3.82651 57.456 2.63755C58.8749 1.57029 60.4954 0.801822 62.2197 0.378589C63.944 -0.0446444 65.7362 -0.113852 67.488 0.175149C70.9992 1.31515 72.732 4.73515 74.2824 8.20075C75.0014 10.144 76.1198 11.9149 77.5656 13.3991C79.4285 14.3292 81.4606 14.8721 83.5392 14.9951C87.1596 14.9862 90.6359 16.4128 93.2064 18.9623C94.0196 20.5487 94.5072 22.2819 94.6403 24.0596C94.7735 25.8373 94.5495 27.6237 93.9816 29.3135C93.4038 31.3441 93.2793 33.4768 93.6168 35.5607C94.5781 37.3201 95.8802 38.8702 97.4472 40.1208C98.9473 41.1857 100.217 42.5422 101.181 44.1092C102.145 45.6763 102.782 47.4216 103.056 49.2408C102.782 51.0599 102.145 52.8052 101.181 54.3723C100.217 55.9393 98.9473 57.2958 97.4472 58.3608C95.8802 59.6113 94.5781 61.1614 93.6168 62.9208C93.2799 65.02 93.4044 67.1673 93.9816 69.2135C94.5483 70.8958 94.7717 72.6747 94.6385 74.4449C94.5054 76.2151 94.0184 77.9406 93.2064 79.5191C90.6359 82.0687 87.1596 83.4953 83.5392 83.4864C81.4483 83.589 79.4003 84.1165 77.52 85.0368C76.0742 86.521 74.9558 88.2919 74.2368 90.2351C72.6864 93.4727 70.9536 97.1208 67.4424 98.2608C65.705 98.5371 63.9297 98.4615 62.2221 98.0385C60.5144 97.6155 58.9092 96.8537 57.5016 95.7983C55.6973 94.6094 53.6613 93.8167 51.528 93.4727C49.3947 93.8167 47.3587 94.6094 45.5544 95.7983C43.1934 97.3183 40.5053 98.256 37.7112 98.5343ZM37.7112 4.41595H37.0272C35.3856 4.96315 34.1544 7.56235 32.9232 10.1159C31.9646 12.7372 30.4025 15.096 28.3632 17.0015C25.8669 18.5252 23.0302 19.4029 20.1096 19.5551C17.3736 19.9655 14.5008 20.3303 13.5432 21.6983C12.5856 23.0663 13.0872 25.8023 13.5432 28.5383C14.2237 31.3246 14.2237 34.2337 13.5432 37.0199C12.4143 39.562 10.6946 41.7976 8.5272 43.5408C6.4752 45.5016 4.332 47.508 4.332 49.2864C4.332 51.0648 6.4752 53.0711 8.5272 55.0319C10.6946 56.7751 12.4143 59.0107 13.5432 61.5527C14.2237 64.339 14.2237 67.2481 13.5432 70.0343C13.0416 72.7703 12.54 75.5975 13.5432 76.8743C14.5464 78.1511 17.3736 78.6072 20.1096 79.0176C22.9677 79.1367 25.7537 79.9505 28.2264 81.3887C30.2657 83.2943 31.8278 85.6531 32.7864 88.2743C34.0176 90.8279 35.2488 93.4271 36.8904 93.9743C38.532 94.5215 40.8576 93.108 43.2288 91.8312C45.6798 90.2327 48.4794 89.2474 51.3912 88.9583C54.303 89.2474 57.1026 90.2327 59.5536 91.8312C61.9248 93.108 64.4328 94.4759 65.892 93.9743C67.3512 93.4727 68.7648 90.8279 69.996 88.2743C70.9546 85.6531 72.5167 83.2943 74.556 81.3887C77.0925 79.8432 79.9789 78.9648 82.9464 78.8351C85.6824 78.4247 88.5552 78.06 89.5128 76.692C90.4704 75.324 89.9688 72.588 89.5128 69.852C88.8323 67.0657 88.8323 64.1566 89.5128 61.3704C90.6417 58.8283 92.3614 56.5927 94.5288 54.8495C96.5808 52.8887 98.724 50.8823 98.724 49.1039C98.724 47.3255 96.5808 45.3192 94.5288 43.3584C92.3614 41.6152 90.6417 39.3796 89.5128 36.8375C88.8323 34.0513 88.8323 31.1422 89.5128 28.3559C90.0144 25.6199 90.516 22.8383 89.5128 21.5159C88.5096 20.1935 85.728 19.8743 82.9464 19.5551C80.0883 19.4361 77.3023 18.6222 74.8296 17.1839C72.7903 15.2784 71.2282 12.9196 70.2696 10.2983C69.0384 7.74475 67.8072 5.14555 66.1656 4.59835C64.524 4.05115 62.1984 5.46475 59.8272 6.74155C57.3762 8.34001 54.5766 9.32534 51.6648 9.61435C48.753 9.32534 45.9534 8.34001 43.5024 6.74155C41.7557 5.57018 39.7829 4.77795 37.7112 4.41595Z" fill="#25D360"/>
</svg>
