<svg width="207" height="211" viewBox="0 0 207 211" fill="none" xmlns="http://www.w3.org/2000/svg">
<rect x="0.0195312" width="206.972" height="211" rx="102.5" fill="#F0A057"/>
<path d="M106.752 130.945C106.752 127.007 107.849 123.146 109.92 119.796C111.99 116.445 114.952 113.737 118.475 111.976C121.997 110.214 125.94 109.468 129.863 109.821C133.785 110.174 137.532 111.612 140.683 113.974C140.885 111.017 141.011 107.707 141.017 104.004C141.064 96.9203 140.522 89.8452 139.395 82.8519C138.496 78.6223 136.391 74.7439 133.334 71.6864C130.276 68.6289 126.398 66.5234 122.169 65.6248C115.178 64.4971 108.105 63.9547 101.024 64.003C93.9387 63.955 86.8616 64.4975 79.8664 65.6248C75.638 66.5239 71.7608 68.6294 68.7042 71.6865C65.6476 74.7437 63.5426 78.6213 62.644 82.85C61.5177 89.8453 60.9752 96.9221 61.0224 104.007C60.976 111.089 61.5184 118.162 62.644 125.154C63.5431 129.382 65.6481 133.258 68.7043 136.315C71.7606 139.371 75.637 141.476 79.8646 142.375C86.8576 143.502 93.9321 144.044 101.015 143.997C104.718 143.997 108.028 143.867 110.985 143.664C108.223 139.998 106.735 135.53 106.747 130.94L106.752 130.945ZM81.2556 83.333H120.782C122.009 83.333 123.187 83.8207 124.055 84.6889C124.923 85.5571 125.411 86.7345 125.411 87.9623C125.411 89.1901 124.923 90.3676 124.055 91.2357C123.187 92.1039 122.009 92.5916 120.782 92.5916H81.2556C80.0279 92.5916 78.8505 92.1039 77.9824 91.2357C77.1143 90.3676 76.6266 89.1901 76.6266 87.9623C76.6266 86.7345 77.1143 85.5571 77.9824 84.6889C78.8505 83.8207 80.0279 83.333 81.2556 83.333ZM81.2556 111.925C80.0279 111.925 78.8505 111.438 77.9824 110.569C77.1143 109.701 76.6266 108.524 76.6266 107.296C76.6266 106.068 77.1143 104.891 77.9824 104.023C78.8505 103.154 80.0279 102.667 81.2556 102.667H104.46C105.688 102.667 106.865 103.154 107.733 104.023C108.602 104.891 109.089 106.068 109.089 107.296C109.089 108.524 108.602 109.701 107.733 110.569C106.865 111.438 105.688 111.925 104.46 111.925H81.2556Z" fill="white"/>
<path d="M128.52 115C125.256 115 122.066 115.968 119.353 117.781C116.639 119.594 114.524 122.171 113.276 125.186C112.027 128.201 111.7 131.518 112.337 134.719C112.973 137.92 114.545 140.86 116.852 143.167C119.16 145.475 122.1 147.046 125.301 147.683C128.501 148.32 131.819 147.993 134.834 146.744C137.849 145.495 140.426 143.38 142.239 140.667C144.052 137.954 145.02 134.763 145.02 131.5C145.02 127.124 143.281 122.927 140.187 119.833C137.092 116.738 132.896 115 128.52 115ZM131.595 139.687C131.595 140.502 131.271 141.285 130.694 141.861C130.117 142.438 129.335 142.762 128.52 142.762C127.704 142.762 126.922 142.438 126.345 141.861C125.768 141.285 125.444 140.502 125.444 139.687V131.572C125.444 130.756 125.768 129.974 126.345 129.397C126.922 128.82 127.704 128.496 128.52 128.496C129.335 128.496 130.117 128.82 130.694 129.397C131.271 129.974 131.595 130.756 131.595 131.572V139.687ZM131.468 124.988C131.398 125.316 131.235 125.617 130.998 125.854C130.76 126.091 130.46 126.255 130.131 126.325C129.588 126.412 129.039 126.454 128.489 126.452C127.939 126.455 127.39 126.413 126.847 126.325C126.519 126.255 126.218 126.091 125.981 125.854C125.743 125.617 125.58 125.316 125.51 124.988C125.423 124.445 125.38 123.896 125.383 123.346C125.379 122.796 125.422 122.246 125.51 121.703C125.58 121.375 125.743 121.074 125.981 120.837C126.218 120.6 126.519 120.436 126.847 120.367C127.39 120.279 127.939 120.237 128.489 120.24C129.039 120.236 129.589 120.278 130.131 120.367C130.46 120.436 130.76 120.6 130.998 120.837C131.235 121.074 131.398 121.375 131.468 121.703C131.556 122.246 131.598 122.796 131.595 123.346C131.599 123.895 131.556 124.444 131.468 124.986V124.988Z" fill="white"/>
</svg>
