<svg id="SvgjsSvg1001" width="288" height="288" xmlns="http://www.w3.org/2000/svg" version="1.1" xmlns:xlink="http://www.w3.org/1999/xlink" xmlns:svgjs="http://svgjs.com/svgjs"><defs id="SvgjsDefs1002"></defs><g id="SvgjsG1008"><svg xmlns="http://www.w3.org/2000/svg" viewBox="0 0 95 91" width="288" height="288"><path fill="#ffc460" d="M0 0 C4.0181097 1.90860211 5.50568658 5.39886001 7.5 9.1875 C7.7976123 9.74856445 8.09522461 10.30962891 8.40185547 10.88769531 C9.38463541 12.75225414 10.35202782 14.6238583 11.3125 16.5 C11.78405518 17.41591919 11.78405518 17.41591919 12.26513672 18.3503418 C13.67213067 21.17097015 14.5 22.99008093 14.5 26.1875 C15.26666992 26.29296143 16.03333984 26.39842285 16.82324219 26.50708008 C20.30066844 26.99245546 23.77522478 27.49601098 27.25 28 C28.4565625 28.16564453 29.663125 28.33128906 30.90625 28.50195312 C32.06640625 28.67275391 33.2265625 28.84355469 34.421875 29.01953125 C36.02434082 29.24733276 36.02434082 29.24733276 37.65917969 29.47973633 C40.66809896 30.22938028 42.25567436 31.07479403 44.5 33.1875 C45.6875 35.875 45.6875 35.875 45.5 39.1875 C43.54627911 42.22377443 41.05658555 44.65382293 38.5 47.1875 C37.71882813 47.99316406 36.93765625 48.79882812 36.1328125 49.62890625 C30.10785824 55.78226117 30.10785824 55.78226117 26.5 58.1875 C26.64238837 60.22940981 26.78907028 62.27102045 26.9375 64.3125 C27.05931641 66.01792969 27.05931641 66.01792969 27.18359375 67.7578125 C27.45208169 71.13892135 27.45208169 71.13892135 28.01953125 74.26171875 C28.4969751 77.16908008 28.70072447 79.9307873 28.75 82.875 C28.77578125 83.80699219 28.8015625 84.73898438 28.828125 85.69921875 C28.5 88.1875 28.5 88.1875 27.359375 90.01953125 C24.42124644 91.86512041 22.96937828 91.7221511 19.5 91.1875 C14.86617494 89.11816367 10.51318277 86.52554572 6.11132812 84.00976562 C5.20705078 83.51025391 4.30277344 83.01074219 3.37109375 82.49609375 C2.55568115 82.03001709 1.74026855 81.56394043 0.90014648 81.08374023 C-2.74508213 79.72257309 -5.16007187 80.59490166 -8.62475586 82.12719727 C-9.31448486 82.49901123 -10.00421387 82.8708252 -10.71484375 83.25390625 C-11.48376953 83.65673828 -12.25269531 84.05957031 -13.04492188 84.47460938 C-14.63856041 85.32411628 -16.22972431 86.17828205 -17.81835938 87.03710938 C-25.67856937 91.1349427 -25.67856937 91.1349427 -30.5 90.1875 C-32.87890625 88.515625 -32.87890625 88.515625 -34.5 86.1875 C-34.77734375 83.734375 -34.77734375 83.734375 -34.4375 80.9375 C-34.28474609 79.34228516 -34.28474609 79.34228516 -34.12890625 77.71484375 C-33.5 74.1875 -33.5 74.1875 -32.15234375 70.44140625 C-30.73292594 66.30230102 -29.45137244 62.55101617 -30.5 58.1875 C-33.95408728 52.93940324 -38.74403 48.98437356 -43.48046875 44.9296875 C-46.8728685 41.9772308 -48.83973063 39.8093856 -49.5 35.1875 C-48.30349128 32.09065391 -47.37941159 30.63704996 -44.40625 29.1171875 C-40.64804136 27.91496484 -36.97570586 27.47727942 -33.0625 27.0625 C-32.32451172 26.97613281 -31.58652344 26.88976562 -30.82617188 26.80078125 C-26.69570191 26.33816861 -22.66345039 26.09512551 -18.5 26.1875 C-18.13841797 24.97126953 -18.13841797 24.97126953 -17.76953125 23.73046875 C-16.23600239 19.45074359 -14.28833974 15.5245839 -12.1875 11.5 C-11.80916016 10.74138672 -11.43082031 9.98277344 -11.04101562 9.20117188 C-8.43842583 4.21177384 -6.08591618 0.45644371 0 0 Z " transform="translate(49.5 -.188)" class="colorFF6070 svgShape"></path><path fill="#ececec" d="M0 0 C4.62 0 9.24 0 14 0 C13 5 13 5 11 7 C3.90140845 7.56338028 3.90140845 7.56338028 1 5.75 C0 4 0 4 0 0 Z " transform="translate(41 46)" class="colorFF848C svgShape"></path><path fill="#ececec" d="M0 0 C2.5625 0.1875 2.5625 0.1875 4.5625 2.1875 C4.1875 4.8125 4.1875 4.8125 3.5625 7.1875 C-1.1875 8.3125 -1.1875 8.3125 -3.4375 7.1875 C-3.48004356 5.18795254 -3.47830783 3.18708364 -3.4375 1.1875 C-2.4375 0.1875 -2.4375 0.1875 0 0 Z " transform="translate(59.438 35.813)" class="colorFF8890 svgShape"></path><path fill="#ececec" d="M0 0 C2.5625 0.1875 2.5625 0.1875 4.5625 2.1875 C4.1875 4.8125 4.1875 4.8125 3.5625 7.1875 C-1.1875 8.3125 -1.1875 8.3125 -3.4375 7.1875 C-3.48004356 5.18795254 -3.47830783 3.18708364 -3.4375 1.1875 C-2.4375 0.1875 -2.4375 0.1875 0 0 Z " transform="translate(35.438 35.813)" class="colorFF878E svgShape"></path></svg></g></svg>