<svg width="1163" height="1033" viewBox="0 0 1163 1033" fill="none" xmlns="http://www.w3.org/2000/svg">
<path d="M193.473 476.305C-27.1051 603.657 -27.1001 810.137 193.486 937.487C414.072 1064.84 771.705 1064.84 992.283 937.487C1212.86 810.134 1212.86 603.657 992.27 476.305C771.687 348.956 414.052 348.956 193.473 476.305Z" fill="#1D1D1D"/>
<path d="M362.818 0.0943002C363.883 -0.281016 364.7 0.487494 364.7 1.9811L364.669 104.881C364.667 105.681 364.429 106.59 364.008 107.399C363.582 108.211 363.007 108.859 362.41 109.201L336.86 123.938C335.584 124.697 334.601 123.892 334.598 122.23L334.626 19.3299C334.629 18.5307 334.866 17.6218 335.288 16.8124C335.714 16.0031 336.288 15.352 336.886 15.0074L362.435 0.270469C362.571 0.193874 362.696 0.137704 362.818 0.0943002ZM360.148 104.481L360.178 7.61082L339.153 19.7358L339.122 116.603L360.148 104.481ZM324.311 34.0412C325.376 33.6659 326.193 34.437 326.193 35.928L326.17 124.344C326.17 124.949 326.032 125.621 325.782 126.262C319.363 142.594 309.424 168.392 308.367 172.535C307.387 176.363 308.04 191.053 308.316 197.329C308.433 199.946 308.523 201.991 308.523 203.005C308.52 204.284 308.068 207.636 303.891 211.147C298.634 215.574 288.871 218.768 285.005 208.532C280.777 197.342 279.825 186.011 281.952 171.271L249.363 190.068C240.636 195.146 236.559 186.81 236.559 179.62C236.559 173.426 238.53 168.014 240.422 164.25C237.805 163.308 235.226 160.372 235.226 153.305C235.221 147.415 237.869 138.913 242.842 132.913C242.174 131.12 241.553 128.317 241.553 124.104C241.561 118.743 245.641 108.083 250.831 102.64C250.407 100.756 249.994 98.0543 249.994 94.7071C249.999 86.131 255.843 73.5005 265.29 68.0443L323.934 34.2174C324.061 34.1408 324.186 34.0846 324.311 34.0412ZM321.643 126.034L321.669 41.5578L265.287 74.0749C258.846 77.7923 254.518 86.394 254.516 92.0926C254.513 97.4594 255.841 100.804 255.856 100.837C256.157 101.593 256.093 102.711 255.672 103.804C255.258 104.894 254.546 105.826 253.78 106.265C250.239 108.305 246.077 117.836 246.075 121.497C246.072 127.781 247.78 129.711 247.852 129.788C248.345 130.321 248.495 131.35 248.23 132.489C247.969 133.628 247.354 134.731 246.585 135.392C242.143 139.232 239.748 146.138 239.751 150.693C239.748 159.213 244.893 158.018 245.11 157.964C246.003 157.737 246.672 158.327 246.807 159.455C246.948 160.584 246.522 162.032 245.738 163.112C244.645 164.618 241.081 170.059 241.081 177.003C241.078 180.864 243.136 187.625 249.361 184.035L284.806 163.589C285.516 163.168 286.172 163.239 286.594 163.727C287.025 164.217 287.173 165.09 286.997 166.096C284.324 181.379 284.977 192.659 289.188 203.804C291.233 209.214 295.468 209.028 297.812 208.433C300.756 207.692 303.107 205.806 303.983 204.797C303.953 203.745 303.884 202.17 303.799 200.278C303.278 188.536 302.916 177.596 304.164 172.711C305.655 166.888 318.799 133.288 321.643 126.034Z" fill="#E0E0E0"/>
<path d="M67.7762 344.084C66.7115 344.46 65.8945 343.691 65.8945 342.198L65.9252 239.297C65.9277 238.498 66.1677 237.589 66.5864 236.78C67.0128 235.968 67.5873 235.319 68.1847 234.977L93.7343 220.24C95.0109 219.482 95.9938 220.286 95.9964 221.948L95.9683 324.849C95.9657 325.648 95.7283 326.557 95.307 327.366C94.8807 328.176 94.3062 328.827 93.7088 329.171L68.1592 343.908C68.0239 343.985 67.8988 344.041 67.7762 344.084ZM70.4468 239.698L70.4162 336.568L91.4415 324.445L91.4722 227.578L70.4468 239.698ZM106.283 309.964C105.218 310.339 104.404 309.571 104.404 308.077L104.427 219.658C104.427 219.053 104.565 218.382 104.818 217.741C111.236 201.408 121.176 175.611 122.233 171.467C123.213 167.64 122.56 152.949 122.284 146.673C122.166 144.056 122.077 142.011 122.077 140.998C122.08 139.719 122.531 136.366 126.708 132.856C131.965 128.428 141.729 125.234 145.594 135.47C149.822 146.661 150.775 157.992 148.648 172.731L181.236 153.935C189.963 148.856 194.041 157.192 194.041 164.382C194.041 170.576 192.07 175.986 190.178 179.752C192.795 180.694 195.373 183.63 195.373 190.698C195.378 196.588 192.731 205.09 187.757 211.09C188.426 212.882 189.047 215.685 189.047 219.898C189.039 225.257 184.959 235.919 179.768 241.363C180.192 243.247 180.606 245.948 180.606 249.295C180.601 257.871 174.757 270.502 165.31 275.958L106.666 309.785C106.533 309.864 106.408 309.92 106.283 309.964ZM108.951 217.971L108.926 302.447L165.307 269.93C171.749 266.213 176.077 257.611 176.079 251.912C176.082 246.546 174.754 243.201 174.739 243.168C174.437 242.412 174.501 241.294 174.922 240.201C175.336 239.111 176.048 238.179 176.814 237.74C180.356 235.7 184.517 226.169 184.52 222.508C184.522 216.224 182.814 214.294 182.743 214.217C182.25 213.686 182.099 212.657 182.365 211.519C182.625 210.383 183.241 209.277 184.009 208.616C188.452 204.776 190.847 197.869 190.844 193.315C190.847 184.795 185.702 185.99 185.485 186.043C184.591 186.27 183.922 185.681 183.787 184.552C183.647 183.424 184.073 181.976 184.857 180.896C185.95 179.39 189.514 173.949 189.514 167.004C189.516 163.144 187.459 156.383 181.234 159.973L145.788 180.419C145.078 180.84 144.422 180.768 144.001 180.281C143.572 179.79 143.421 178.917 143.6 177.911C146.273 162.628 145.62 151.348 141.407 140.204C139.362 134.793 135.126 134.98 132.782 135.575C129.839 136.315 127.487 138.202 126.611 139.21C126.642 140.262 126.711 141.838 126.795 143.73C127.316 155.472 127.679 166.412 126.43 171.296C124.939 177.117 111.795 210.717 108.951 217.971Z" fill="#E0E0E0"/>
<path d="M866.971 575.017L234.508 940.169C223.141 946.731 203.288 945.908 190.162 938.331L10.8578 834.81C-2.26805 827.232 -3.69272 815.768 7.67398 809.207L640.137 444.055C651.504 437.493 671.357 438.315 684.483 445.893L863.787 549.414C876.911 556.992 878.338 568.456 866.971 575.017Z" fill="#393939"/>
<path d="M1033.16 825.105C1010.71 841.833 983.375 851.04 955.735 855.467C928.092 859.894 899.945 859.777 871.952 859.407C884.529 890.366 870.635 929.667 841.394 945.842C835.325 949.199 825.069 952.756 820.059 946.094C815.206 939.643 812.839 931.232 811.848 923.333C810.247 910.559 811.45 897.487 811.458 884.645C791.663 897.303 772.343 910.881 753.345 924.684C747.125 929.187 740.931 933.957 736.435 940.181C728.827 950.721 726.184 962.943 712.494 967.15C705.399 969.331 697.801 969.504 690.731 971.761C683.015 974.225 676.278 979.058 668.774 982.112C651.864 988.993 632.304 986.238 615.525 979.046C608.151 975.885 600.936 971.739 596.019 965.399C593.524 962.182 591.632 958.128 592.368 954.122C593.077 950.259 596.149 947.164 599.657 945.397C603.165 943.631 607.11 942.972 610.978 942.298C646.699 936.068 683.074 925.799 709.239 899.405C721.142 887.4 730.88 873.447 739.417 858.904C742.8 853.141 750.033 844.152 749.891 837.245C749.765 831.212 744.868 822.812 742.177 817.458C734.625 802.43 724.727 786.424 711.754 753.795C706.747 741.2 706.941 733.173 707.796 727.776C711.008 707.503 735.279 695.585 751.739 687.706C770.694 678.632 791.022 672.627 811.726 669.165C852.985 662.264 896.093 665.243 936.451 674.139C982.009 684.178 1035.77 705.622 1063.55 745.198C1069.97 754.354 1072.73 766.576 1082 772.842C1085.93 775.497 1090.61 776.745 1095.2 777.948C1114.6 783.036 1134 788.125 1153.4 793.216C1158.18 794.469 1164.2 797.748 1162.79 802.486C1162.36 803.944 1161.24 805.096 1160.04 806.03C1153.46 811.167 1144.36 811.152 1136.01 810.902C1124.58 810.56 1113.15 810.215 1101.71 809.873C1106.12 811.586 1110.78 813.491 1113.54 817.336C1116.3 821.181 1116 827.587 1111.76 829.68C1109.12 830.982 1105.98 830.25 1103.14 829.494C1091.07 826.282 1079.01 823.073 1066.94 819.861C1053.66 816.322 1044.14 816.927 1033.16 825.105Z" fill="#393939"/>
<path d="M670.395 467.066L682.365 460.154C682.365 460.154 745.944 252.748 751.862 240.727C757.78 228.707 747.08 222.574 735.632 229.184L138.816 573.311C127.367 579.921 123.767 589.01 113.588 608.79C103.406 628.569 45.9901 819.148 45.9901 819.148C45.1425 823.585 47.1927 828.074 51.1016 830.338L186.989 909.042L811.236 548.652L670.395 467.066Z" fill="#099739"/>
<path d="M121.08 613.577C113.339 628.569 53.5593 823.197 53.5593 823.197L689.926 455.791C689.926 455.791 753.043 257.974 759.355 245.512C765.669 233.05 754.573 227.359 743.124 233.969L146.311 578.098C134.86 584.705 128.822 598.584 121.08 613.577Z" fill="#12B348"/>
<path d="M677.809 462.807L53.5593 823.199L191.803 903.032L816.05 542.642L677.809 462.807Z" fill="#25D360"/>
<path d="M721.272 8.28182L119.847 354.882C106.66 362.496 102.545 374.82 104.871 391.063L176.032 890.545C178.358 906.788 191.295 916.291 204.485 908.675L800.583 564.661C813.771 557.047 822.579 537.707 820.251 521.466L749.362 23.9047C747.036 7.66141 734.459 0.668274 721.272 8.28182Z" fill="#12B348"/>
<path d="M761.806 18.8781C757.077 17.0296 751.407 17.5454 745.59 20.8926L149.474 364.932C143.155 368.581 137.847 374.953 134.262 382.386L115.019 374.228C119.25 364.998 126.628 361.626 132.945 357.944L729.026 13.9071C735.112 10.4246 741.02 10.0237 745.866 12.1812L745.861 12.1505L761.806 18.8781Z" fill="#455A64"/>
<path d="M195.369 913.693L195.364 913.662C189.456 911.234 185.064 905.104 183.785 896.175L113.262 401.134C111.809 390.985 111.334 381.885 115.021 374.221L134.264 382.378C133.756 383.435 133.289 384.523 132.829 385.638C132.479 386.532 132.17 387.423 131.895 388.314C131.838 388.442 131.787 388.6 131.769 388.728C131.402 389.747 131.113 390.796 130.861 391.843C130.575 392.923 130.332 394.031 130.158 395.106C129.985 395.93 129.883 396.75 129.816 397.569C129.336 401.106 129.336 404.685 129.826 408.119L200.715 905.668C202.007 914.688 206.48 920.88 212.457 923.272L195.369 913.693Z" fill="#263238"/>
<path d="M745.575 20.9284L144.15 367.526C130.963 375.14 126.848 387.466 129.174 403.707L200.698 905.698C203.024 921.939 215.601 928.935 228.788 921.321L824.886 577.307C838.074 569.694 846.882 550.353 844.554 534.113L773.662 36.5487C771.339 20.3079 758.762 13.3148 745.575 20.9284Z" fill="#37474F"/>
<path d="M788.294 575.018L256.214 882.07C249.379 886.017 242.863 882.392 241.658 873.974L171.469 381.565C170.264 373.149 174.827 363.126 181.661 359.181L713.742 52.1293C720.577 48.1846 727.092 51.8076 728.297 60.2254L798.487 552.635C799.692 561.05 795.129 571.074 788.294 575.018Z" fill="#263238"/>
<path d="M171.469 381.568L241.658 873.98C241.707 874.314 241.776 874.631 241.842 874.95L773.922 567.898C780.757 563.953 785.32 553.93 784.115 545.514L713.742 52.1299L181.661 359.182C174.827 363.129 170.264 373.15 171.469 381.568Z" fill="#2A2A2A"/>
<path d="M198.612 686.468C199.217 690.701 196.922 695.743 193.485 697.727C190.046 699.711 186.768 697.888 186.163 693.655C185.558 689.422 187.853 684.379 191.29 682.395C194.726 680.409 198.005 682.232 198.612 686.468Z" fill="#263238"/>
<path d="M175.337 571.165C172.664 572.707 170.88 576.626 171.352 579.917L182.982 660.993C183.454 664.284 186.002 665.701 188.675 664.159C191.348 662.617 193.133 658.698 192.661 655.404L181.028 574.328C180.559 571.037 178.011 569.62 175.337 571.165Z" fill="#263238"/>
<path d="M112.021 891.977L134.814 878.806C134.814 878.806 148.379 822.437 142.973 771.715C135.373 700.403 88.4326 673.572 70.5834 679.722C52.7342 685.873 47.5641 706.622 77.0991 749.094C94.5245 774.156 115.93 826.351 112.021 891.977Z" fill="#BA68C8"/>
<g opacity="0.65">
<path d="M112.021 891.977L134.814 878.806C134.814 878.806 148.379 822.437 142.973 771.715C135.373 700.403 88.4326 673.572 70.5834 679.722C52.7342 685.873 47.5641 706.622 77.0991 749.094C94.5245 774.156 115.93 826.351 112.021 891.977Z" fill="#25D360"/>
</g>
<path d="M121.466 864.29C121.392 864.287 121.32 864.277 121.249 864.264C120.391 864.101 119.827 863.274 119.99 862.418C132.485 796.644 109.507 722.732 81.0542 691.976C80.4619 691.338 80.5002 690.335 81.1436 689.742C81.7844 689.158 82.7853 689.188 83.3776 689.829C112.348 721.146 135.776 796.263 123.097 863.006C122.947 863.789 122.239 864.328 121.466 864.29Z" fill="white"/>
<path d="M54.6574 925.098C51.254 926.831 42.1979 919.08 39.6729 917.196C35.3503 913.968 31.9419 909.536 29.7768 904.608C27.2568 898.874 26.8559 892.844 28.0432 886.701C28.661 883.514 29.7155 880.433 30.7674 877.361C31.8014 874.348 32.8329 871.333 33.8669 868.32C34.8857 865.346 35.9197 862.269 35.6797 859.134C35.192 852.82 29.8457 848.143 24.9743 844.096C19.5871 839.62 14.0339 833.794 14.4475 826.242C14.7667 820.415 18.0577 815.153 21.9002 810.762C25.7428 806.37 30.2338 802.546 33.7418 797.881C36.2669 794.524 38.3069 790.533 38.1358 786.335C38.0286 783.726 37.0763 781.227 35.9503 778.873C33.5299 773.82 30.2389 769.137 28.6661 763.76C27.0934 758.383 27.6857 751.824 32.0006 748.252C35.5418 745.319 40.5945 745.14 45.1622 745.674C49.3877 746.169 53.4319 748.288 57.037 750.538C68.6922 757.811 74.8198 772.359 87.2869 778.132C92.0945 780.359 97.4511 781.063 102.499 782.674C107.546 784.285 112.632 787.16 114.762 792.014C118.962 801.58 109.714 812.641 112.497 822.71C114.961 831.621 123.31 835.405 127.693 843.547C129.611 847.109 129.892 851.125 129.353 855.133C128.436 861.917 127.188 866.868 123.537 874.277C120.519 880.402 112.022 891.978 112.022 891.978C112.022 891.978 55.1782 924.832 54.6574 925.098Z" fill="#25D360"/>
<g opacity="0.3">
<path d="M54.6574 925.098C51.254 926.831 42.1979 919.08 39.6729 917.196C35.3503 913.968 31.9419 909.536 29.7768 904.608C27.2568 898.874 26.8559 892.844 28.0432 886.701C28.661 883.514 29.7155 880.433 30.7674 877.361C31.8014 874.348 32.8329 871.333 33.8669 868.32C34.8857 865.346 35.9197 862.269 35.6797 859.134C35.192 852.82 29.8457 848.143 24.9743 844.096C19.5871 839.62 14.0339 833.794 14.4475 826.242C14.7667 820.415 18.0577 815.153 21.9002 810.762C25.7428 806.37 30.2338 802.546 33.7418 797.881C36.2669 794.523 38.3069 790.533 38.1358 786.335C38.0286 783.726 37.0763 781.227 35.9503 778.873C33.5299 773.82 30.2389 769.137 28.6661 763.76C27.0934 758.383 27.6857 751.824 32.0006 748.252C35.5418 745.319 40.5945 745.14 45.1622 745.674C49.3877 746.169 53.4319 748.288 57.037 750.538C68.6922 757.811 74.8198 772.359 87.2869 778.132C92.0945 780.359 97.4511 781.063 102.499 782.674C107.546 784.285 112.632 787.16 114.762 792.014C118.962 801.58 109.714 812.641 112.497 822.71C114.961 831.621 123.31 835.405 127.693 843.547C129.611 847.109 129.892 851.125 129.353 855.133C128.436 861.917 127.188 866.868 123.537 874.277C120.519 880.402 112.022 891.978 112.022 891.978C112.022 891.978 55.1782 924.832 54.6574 925.098Z" fill="#25D360"/>
</g>
<path d="M87.6562 907.894C87.6358 907.894 87.6154 907.892 87.6154 907.892C86.7728 907.813 86.1677 907.085 86.2418 906.263C91.6979 847.104 67.0675 780.244 47.7119 760.204C47.14 759.612 47.1553 758.664 47.7476 758.09C48.3451 757.518 49.2872 757.536 49.8617 758.126C69.6028 778.569 94.7515 846.542 89.2188 906.536C89.1473 907.343 88.4528 907.935 87.6562 907.894Z" fill="white"/>
<path d="M81.7786 834.958C81.6331 834.95 81.485 834.922 81.3421 834.869C62.5916 828.021 38.9058 825.785 38.6684 825.764C37.8463 825.688 37.2412 824.957 37.3152 824.138C37.3918 823.316 38.048 822.698 38.9416 822.785C39.1841 822.807 63.2452 825.077 82.3659 832.063C83.142 832.344 83.5429 833.204 83.2569 833.98C83.0272 834.608 82.4169 834.991 81.7786 834.958Z" fill="white"/>
<path d="M817.408 269.621C826.581 274.918 839.258 274.153 853.259 266.069C881.26 249.903 903.96 210.584 903.96 178.253C903.963 162.084 898.287 150.727 889.111 145.429C883.54 142.212 871.816 135.449 866.245 132.232C857.069 126.934 844.392 127.703 830.393 135.784C802.39 151.953 779.692 191.269 779.69 223.602C779.69 239.772 785.366 251.128 794.542 256.423C800.113 259.64 811.837 266.404 817.408 269.621Z" fill="#25D360"/>
<path d="M903.963 178.251C903.963 162.084 898.287 150.725 889.114 145.427C879.937 140.129 867.264 140.895 853.262 148.979C825.259 165.148 802.559 204.464 802.559 236.797C802.559 252.964 808.234 264.323 817.408 269.621C826.584 274.919 839.258 274.153 853.259 266.07C881.263 249.9 903.963 210.584 903.963 178.251Z" fill="#48ED80"/>
<path d="M827.033 224.637C827.033 232.516 829.091 238.889 832.553 243.005C837.371 248.777 844.849 250.181 853.231 245.313C861.662 240.444 869.14 230.356 873.958 219.066C877.423 210.937 879.478 202.202 879.478 194.323L827.033 224.637Z" fill="#37474F"/>
<path d="M832.548 243.009C837.366 248.782 844.844 250.186 853.226 245.317C861.656 240.448 869.135 230.361 873.952 219.071C868.583 215.205 861.256 215.157 853.226 219.773C845.245 224.389 837.917 232.87 832.548 243.009Z" fill="#25D360"/>
<path d="M838.615 195.828C838.615 199.727 836.562 204.075 834.03 205.538C831.497 207.001 829.444 205.025 829.444 201.124C829.444 197.225 831.497 192.877 834.03 191.414C836.562 189.954 838.615 191.927 838.615 195.828Z" fill="#37474F"/>
<path d="M876.872 174.506C876.872 178.405 874.82 182.753 872.287 184.216C869.754 185.679 867.701 183.703 867.701 179.801C867.701 175.903 869.754 171.555 872.287 170.092C874.82 168.631 876.872 170.605 876.872 174.506Z" fill="#37474F"/>
<path d="M684.885 346.136C694.059 351.434 706.735 350.668 720.737 342.585C748.738 326.418 771.438 287.099 771.438 254.769C771.44 238.599 765.765 227.24 756.589 221.945C751.018 218.728 739.293 211.965 733.722 208.748C724.546 203.45 711.87 204.218 697.871 212.299C669.868 228.468 647.17 267.787 647.167 300.121C647.167 316.287 652.843 327.646 662.019 332.941C667.59 336.156 679.314 342.919 684.885 346.136Z" fill="#25D360"/>
<path d="M771.44 254.766C771.44 238.599 765.765 227.24 756.591 221.943C747.415 216.645 734.741 217.411 720.74 225.497C692.736 241.663 670.036 280.982 670.036 313.315C670.036 329.482 675.712 340.841 684.885 346.139C694.061 351.437 706.735 350.671 720.737 342.585C748.74 326.416 771.44 287.099 771.44 254.766Z" fill="#48ED80"/>
<path d="M695.145 303.601C696 308.21 697.698 312.019 700.036 314.797C704.854 320.57 712.332 321.974 720.714 317.105C729.145 312.236 736.623 302.148 741.441 290.858C743.775 285.382 745.47 279.629 746.328 274.051" stroke="#37474F" stroke-width="3.4641" stroke-miterlimit="10" stroke-linecap="round"/>
<path d="M706.1 272.341C706.1 276.24 704.047 280.588 701.515 282.051C698.982 283.514 696.929 281.538 696.929 277.636C696.929 273.738 698.982 269.39 701.515 267.927C704.047 266.466 706.1 268.44 706.1 272.341Z" fill="#37474F"/>
<path d="M744.357 251.017C744.357 254.916 742.304 259.264 739.772 260.727C737.239 262.19 735.186 260.214 735.186 256.315C735.186 252.417 737.239 248.068 739.772 246.606C742.302 245.143 744.357 247.119 744.357 251.017Z" fill="#37474F"/>
<path d="M552.355 422.644C561.529 427.941 574.205 427.176 588.207 419.092C616.207 402.926 638.908 363.607 638.908 331.276C638.91 315.107 633.234 303.748 624.058 298.45C618.487 295.233 606.763 288.47 601.192 285.253C592.016 279.955 579.34 280.723 565.341 288.804C537.337 304.973 514.637 344.292 514.637 376.623C514.637 392.792 520.313 404.149 529.489 409.444C535.06 412.663 546.784 419.427 552.355 422.644Z" fill="#25D360"/>
<path d="M638.91 331.271C638.91 315.104 633.234 303.745 624.061 298.447C614.885 293.15 602.211 293.916 588.209 302.002C560.206 318.168 537.506 357.487 537.506 389.82C537.506 405.987 543.182 417.346 552.355 422.644C561.531 427.942 574.205 427.176 588.207 419.09C616.207 402.923 638.91 363.604 638.91 331.271Z" fill="#48ED80"/>
<path d="M611.82 363.315L564.394 390.731" stroke="#37474F" stroke-width="3.4641" stroke-miterlimit="10" stroke-linecap="round"/>
<path d="M573.565 348.85C573.565 352.748 571.512 357.096 568.979 358.559C566.446 360.022 564.394 358.046 564.394 354.145C564.394 350.246 566.446 345.898 568.979 344.435C571.512 342.975 573.565 344.951 573.565 348.85Z" fill="#37474F"/>
<path d="M611.822 327.526C611.822 331.425 609.769 335.773 607.236 337.236C604.703 338.699 602.651 336.723 602.651 332.824C602.651 328.925 604.703 324.577 607.236 323.114C609.769 321.651 611.822 323.627 611.822 327.526Z" fill="#37474F"/>
<path d="M419.825 499.159C428.998 504.457 441.675 503.691 455.676 495.608C483.677 479.441 506.377 440.122 506.377 407.792C506.38 391.622 500.704 380.263 491.528 374.966C485.957 371.749 474.233 364.985 468.662 361.768C459.486 356.47 446.809 357.239 432.81 365.32C404.807 381.489 382.109 420.808 382.107 453.138C382.107 469.308 387.783 480.664 396.959 485.959C402.53 489.179 414.254 495.942 419.825 499.159Z" fill="#25D360"/>
<path d="M506.38 407.787C506.38 391.62 500.704 380.261 491.531 374.963C482.354 369.665 469.681 370.431 455.679 378.517C427.676 394.684 404.976 434.003 404.976 466.336C404.976 482.503 410.651 493.862 419.825 499.16C429.001 504.457 441.677 503.691 455.676 495.605C483.68 479.439 506.38 440.12 506.38 407.787Z" fill="#48ED80"/>
<path d="M441.039 425.362C441.039 429.261 438.986 433.609 436.454 435.072C433.921 436.535 431.868 434.559 431.868 430.658C431.868 426.759 433.921 422.411 436.454 420.948C438.986 419.488 441.039 421.464 441.039 425.362Z" fill="#37474F"/>
<path d="M479.296 404.039C479.296 407.938 477.243 412.286 474.711 413.749C472.178 415.212 470.125 413.235 470.125 409.337C470.125 405.438 472.178 401.09 474.711 399.627C477.241 398.164 479.296 400.14 479.296 404.039Z" fill="#37474F"/>
<path d="M476.281 444.5C471.463 438.727 463.985 437.323 455.603 442.192C447.173 447.061 439.694 457.149 434.876 468.439" stroke="#37474F" stroke-width="2.7" stroke-miterlimit="10" stroke-linecap="round"/>
<path d="M287.304 575.68C296.477 580.978 309.154 580.212 323.155 572.129C351.156 555.962 373.859 516.643 373.856 484.312C373.859 468.143 368.183 456.787 359.007 451.489C353.436 448.272 341.712 441.509 336.141 438.292C326.965 432.994 314.288 433.762 300.289 441.843C272.286 458.012 249.588 497.329 249.586 529.662C249.586 545.831 255.262 557.188 264.438 562.483C270.009 565.702 281.733 572.466 287.304 575.68Z" fill="#25D360"/>
<path d="M373.859 484.31C373.859 468.143 368.183 456.784 359.01 451.487C349.833 446.189 337.16 446.955 323.158 455.041C295.155 471.207 272.455 510.526 272.455 542.859C272.455 559.026 278.13 570.385 287.304 575.683C296.48 580.981 309.156 580.215 323.155 572.129C351.159 555.962 373.859 516.643 373.859 484.31Z" fill="#48ED80"/>
<path d="M308.512 506.411C308.512 510.31 306.46 514.658 303.927 516.121C301.394 517.584 299.341 515.607 299.341 511.709C299.341 507.81 301.394 503.462 303.927 501.999C306.46 500.536 308.512 502.512 308.512 506.411Z" fill="#37474F"/>
<path d="M346.761 485.09C346.761 488.989 344.708 493.337 342.176 494.8C339.643 496.263 337.59 494.286 337.59 490.385C337.59 486.486 339.643 482.138 342.176 480.675C344.708 479.215 346.761 481.191 346.761 485.09Z" fill="#37474F"/>
<path d="M345.767 529.129C345.014 525.069 343.518 521.712 341.457 519.263C337.211 514.177 330.622 512.939 323.238 517.228C315.808 521.518 309.221 530.405 304.975 540.357C302.92 545.183 301.426 550.251 300.668 555.168" stroke="#37474F" stroke-width="2.7" stroke-miterlimit="10" stroke-linecap="round"/>
<path d="M301.467 493.302L310.171 494.949" stroke="#37474F" stroke-width="2" stroke-miterlimit="10" stroke-linecap="round"/>
<path d="M345.008 468.168L336.304 479.867" stroke="#37474F" stroke-width="2" stroke-miterlimit="10" stroke-linecap="round"/>
<path d="M895.415 298.265C892.251 296.399 888.113 296.55 883.576 299.169L275.554 650.212C265.602 655.959 257.531 671.375 257.531 684.647C257.531 691.854 259.916 696.938 263.687 699.159C265.464 700.206 272.306 704.094 274.022 705.123C277.193 707.025 281.352 706.887 285.915 704.252L893.937 353.21C903.889 347.462 911.959 332.046 911.959 318.775C911.959 311.601 909.598 306.533 905.857 304.296C904.073 303.229 897.159 299.294 895.415 298.265Z" fill="#5F5F5F"/>
<path opacity="0.1" d="M895.415 298.265C892.251 296.399 888.113 296.55 883.576 299.169L275.554 650.212C265.602 655.959 257.531 671.375 257.531 684.647C257.531 691.854 259.916 696.938 263.687 699.159C265.464 700.206 272.306 704.094 274.022 705.123C277.193 707.025 281.352 706.887 285.915 704.252L893.937 353.21C903.889 347.462 911.959 332.046 911.959 318.775C911.959 311.601 909.598 306.533 905.857 304.296C904.073 303.229 897.159 299.294 895.415 298.265Z" fill="#464646"/>
<path d="M893.943 353.209L285.918 704.252C275.966 709.999 267.896 703.899 267.896 690.628C267.896 677.356 275.964 661.94 285.918 656.193L893.943 305.15C903.895 299.403 911.965 305.503 911.965 318.774C911.965 332.046 903.895 347.462 893.943 353.209Z" fill="#464646"/>
<path d="M891.015 343.928L288.863 691.581C284.18 694.285 280.384 690.631 280.384 683.421C280.384 676.211 284.18 668.173 288.863 665.469L891.015 317.817C895.698 315.113 899.494 318.767 899.494 325.977C899.497 333.187 895.7 341.225 891.015 343.928Z" fill="#455A64"/>
<path d="M288.859 665.471C284.174 668.174 280.38 676.212 280.38 683.422C280.38 684.139 280.428 684.811 280.5 685.457C280.638 685.388 280.77 685.332 280.908 685.253L883.063 337.6C887.745 334.897 891.542 326.859 891.542 319.649C891.542 318.932 891.493 318.26 891.422 317.614C891.286 317.683 891.151 317.739 891.013 317.819L288.859 665.471Z" fill="#263238"/>
<path d="M285.881 689.913C284.172 689.913 282.932 687.181 282.932 683.415C282.932 677.137 286.23 669.93 290.134 667.678L717.986 420.516C718.609 420.156 719.199 419.967 719.687 419.967C721.397 419.967 722.636 422.699 722.636 426.465C722.636 432.743 719.337 439.95 715.433 442.202L287.581 689.364C286.958 689.724 286.371 689.913 285.881 689.913Z" fill="#25D360"/>
<path d="M720.233 444.057C722.735 445.503 726.192 445.293 730.011 443.087C737.648 438.678 743.839 427.955 743.839 419.136C743.839 414.727 742.292 411.627 739.79 410.182C738.271 409.304 737.541 408.882 736.022 408.004C733.52 406.559 730.063 406.768 726.243 408.972C718.606 413.381 712.415 424.104 712.415 432.923C712.415 437.332 713.965 440.429 716.467 441.874C717.984 442.758 718.714 443.179 720.233 444.057Z" fill="#263238"/>
<path d="M743.84 419.141C743.84 414.732 742.293 411.632 739.791 410.189C737.289 408.744 733.832 408.954 730.012 411.16C722.376 415.569 716.184 426.292 716.184 435.111C716.184 439.52 717.731 442.62 720.234 444.062C722.736 445.507 726.193 445.298 730.012 443.092C737.649 438.685 743.84 427.96 743.84 419.141Z" fill="#455A64"/>
<path d="M740.797 420.891C740.797 417.452 739.59 415.034 737.637 413.906C735.683 412.78 732.987 412.941 730.008 414.662C724.049 418.101 719.218 426.468 719.218 433.348C719.218 436.787 720.426 439.205 722.379 440.334C724.332 441.46 727.028 441.299 730.008 439.578C735.967 436.136 740.797 427.772 740.797 420.891Z" fill="#25D360"/>
<path d="M844.139 826.698C853.346 829.568 848.298 847.144 849.386 854.341C850.32 860.523 851.431 862.282 853.31 870.122C855.393 878.813 860.254 887.132 850.9 907.56C841.422 928.261 829.66 936.76 820.068 940.804C815.03 942.929 808.984 942.02 808.977 942.02C806.587 941.66 803.865 939.393 802.864 937.268C801.687 934.774 801.511 931.866 801.82 929.162C802.898 919.731 806.679 910.94 808.589 901.672C810.511 892.35 811.471 882.86 812.178 873.378C812.947 863.089 813.524 852.406 818.352 843.289C820.992 838.3 824.845 833.972 829.42 830.666C831.327 829.287 833.377 828.074 835.599 827.296C837.205 826.734 838.89 826.402 840.587 826.315C841.956 826.246 843.133 826.384 844.139 826.698Z" fill="#263238"/>
<path d="M737.537 638.288C781.079 641.531 891.163 663.677 891.163 663.677L904.231 757.544L887.653 767.54L802.53 748.723L805.696 758.481C806.444 760.787 807.333 763.526 808.285 766.465C808.285 766.465 815.143 787.608 815.301 788.095C818.112 796.761 820.198 802.802 823.819 808.01C825.299 810.137 826.931 812.11 828.79 813.816C833.95 818.542 841.07 820.796 843.57 827.746C846.013 834.535 844.803 841.924 844.18 848.922C843.728 854.008 844.055 859.16 845.143 864.149C845.967 867.925 847.226 871.599 848.007 875.386C851.812 893.814 843.588 913.39 829.893 926.293C826.18 929.791 821.676 932.714 817.058 934.882C815.276 935.717 813.437 936.537 811.477 936.71C806.327 937.17 801.693 932.939 799.929 928.08C797.301 920.847 799.484 913.849 800.439 906.634C801.925 895.423 803.373 883.676 802.18 872.434C801.07 861.966 798.879 853.199 794.618 843.527C790.395 833.943 781.908 822.956 776.131 815.58C770.355 808.207 749.823 778.189 749.823 778.189C730.549 750.048 706.031 712.488 695.747 689.311C686.292 667.992 693.109 634.982 737.537 638.288Z" fill="#FFBDA7"/>
<path d="M849.812 875.748C849.812 875.748 843.695 870.016 831.698 870.371C815.825 870.841 804.67 879.925 801.248 889.5C800.363 896.671 798.517 908.541 797.687 915.162C796.857 921.782 794.929 931.106 805.328 937.601C815.99 941.37 828.442 932.286 836.738 921.897C845.033 911.508 853.05 893.176 849.812 875.748Z" fill="#455A64"/>
<path d="M799.587 712.481C804.478 721.223 808.719 729.082 812.253 736.524C815.784 743.967 824.774 745.557 837.984 743.952C854.398 741.955 867.953 738.107 878.98 734.369C871.262 715.678 875.786 693.802 875.786 693.802C877.655 705.626 901.67 739.141 901.67 739.141L904.231 757.545L887.653 767.54L802.53 748.723C790.186 711.059 787.181 695.48 768.895 686.487C768.895 686.487 785.095 686.584 799.587 712.481Z" fill="#F0997A"/>
<path d="M711.174 946.685C710.617 956.313 692.342 955.67 685.622 958.468C679.851 960.871 678.411 962.375 671.257 966.097C663.33 970.223 656.434 976.951 634.351 972.822C611.97 968.638 600.877 959.283 594.632 950.954C591.351 946.581 590.769 940.497 590.769 940.486C590.539 938.079 592.081 934.892 593.899 933.404C596.033 931.657 598.814 930.782 601.513 930.427C610.926 929.191 620.368 930.731 629.822 930.34C639.333 929.947 648.772 928.583 658.144 926.975C668.314 925.229 678.817 923.204 688.834 925.681C694.313 927.034 699.444 929.725 703.759 933.363C705.559 934.88 707.232 936.575 708.524 938.541C709.458 939.963 710.188 941.518 710.684 943.144C711.084 944.459 711.235 945.634 711.174 946.685Z" fill="#263238"/>
<path d="M602.099 928.331C608.482 924.032 615.799 924.456 623.03 923.636C634.267 922.365 646.016 920.925 656.635 917.046C666.523 913.436 676.151 908.8 684.503 902.327C691.669 896.772 698.716 886.707 704.216 879.308C704.216 879.308 730.544 840.385 763.666 792.983C776.667 774.378 791.971 766.134 810.254 760.721C839.597 752.035 892.76 738.016 892.76 738.016C870.399 707.75 874.081 675.846 880.101 661.816C880.101 661.816 1038.92 657.425 1041.8 710.38C1044.05 751.864 1023.48 801.061 980.946 814.353C921.582 832.904 860.873 834.194 828.187 838.026C815.503 855.778 798.785 870.002 778.413 883.697C749.197 903.338 736.73 911.795 735.459 912.658C731.358 915.537 727.965 918.343 724.378 922.446C722.673 924.397 721.153 926.457 719.948 928.676C716.611 934.827 716.147 942.279 710.011 946.39C704.017 950.404 696.554 951.019 689.614 952.109C684.572 952.901 679.649 954.466 675.074 956.73C671.609 958.446 668.349 960.555 664.864 962.23C647.903 970.382 626.918 967.142 611.084 956.975C606.789 954.221 602.865 950.559 599.646 946.602C598.402 945.075 597.164 943.49 596.521 941.628C594.828 936.739 597.81 931.219 602.099 928.331Z" fill="#FFBDA7"/>
<path d="M980.954 814.355C943.856 825.701 905.27 830.805 866.72 834.037C853.865 835.176 840.987 836.069 828.132 837.489L827.894 837.514L827.754 837.711C812.407 859.334 790.654 875.077 768.696 889.456C761.405 894.356 742.863 906.818 735.822 911.551C728.55 916.555 721.516 922.765 717.975 931.093C714.498 940.736 712.608 946.415 701.814 949.106C693.358 951.21 684.102 951.284 676.108 955.31C672.013 957.161 668.329 959.63 664.428 961.481C648.616 968.99 629.485 966.38 614.528 957.963C608.814 954.825 603.879 950.505 599.843 945.406C598.5 943.729 597.323 941.985 597.047 940.019C596.041 930.955 605.968 925.857 613.931 925.315C627.011 924.131 640.425 922.88 653.109 919.063C665.696 914.863 678.067 909.192 688.027 900.253C701.426 887.454 728.295 844.505 739.915 828.527C742.963 824.1 759.117 800.542 761.867 796.546C775.483 775.089 793.825 764.902 818.052 758.941C828.441 755.976 881.401 741.242 892.763 738.022C881.051 741.099 828.175 755.555 817.858 758.279C796.963 763.217 778.539 771.923 765.505 789.602C762.837 793.069 759.16 798.676 756.582 802.322C745.45 818.435 715.182 862.239 703.649 878.929C699.623 884.352 693.061 893.562 687.031 899.196C666.932 916.908 639.789 921.925 613.729 923.633C609.32 924.123 604.729 925.29 600.989 928.073C597.277 930.891 594.563 935.492 595.29 940.305C595.638 942.756 597.06 944.798 598.433 946.527C602.569 951.802 607.742 956.339 613.609 959.581C621.386 963.97 630.087 966.725 638.993 967.499C647.878 968.27 657.057 966.94 665.168 963.041C669.212 961.098 672.873 958.632 676.805 956.844C688.399 950.548 704.574 954.516 713.849 943.838C716.704 940.119 717.692 935.635 719.379 931.685C724.269 919.734 737.359 912.338 747.571 905.347C776.06 885.695 808.447 867.256 828.635 838.344C877.696 834.325 932.265 829.965 980.954 814.355Z" fill="#F0997A"/>
<path d="M664.952 964.056C664.952 964.056 669.032 956.733 665.784 945.177C661.484 929.892 649.972 921.265 639.854 920.264C632.682 921.139 620.718 922.222 614.093 923.021C607.467 923.818 597.954 924.203 594.17 935.866C593.095 947.126 604.922 957.006 617.011 962.542C629.1 968.077 648.826 971.416 664.952 964.056Z" fill="#455A64"/>
<path d="M688.012 953.304C693.182 941.177 708.539 921.369 722.975 925.339C722.975 925.339 721.014 929.31 719.288 934.056C717.562 938.802 716.699 944.649 709.795 948.522C702.889 952.395 688.012 953.304 688.012 953.304Z" fill="#455A64"/>
<path d="M1038.59 667.076C1045.41 705.703 1047.35 741.664 1031.88 772.749C1016.42 803.836 989.206 815.714 965.038 821.252C940.872 826.787 925.308 828.99 925.308 828.99C925.308 828.99 935.253 801.939 919.436 771.064C901.464 735.983 872.271 743.477 872.271 743.477L839.971 752.273C839.971 752.273 853.773 735.412 854.304 700.094C854.833 664.776 838.87 653.687 838.87 653.687C838.87 653.687 864.765 658.045 874.109 657.693C883.454 657.343 894.351 637.699 894.351 637.699C894.351 637.699 903.267 658.755 946.239 671.554C986.122 683.434 1021.78 676.449 1038.59 667.076Z" fill="#455A64"/>
<path d="M985.997 693.643C990.394 693.709 994.678 693.614 998.817 693.39C998.424 696.38 998.442 699.433 998.191 702.436C997.921 705.655 997.548 708.87 997.053 712.061C996.139 717.954 994.63 723.688 993.289 729.489C992.031 734.937 991.022 740.667 991.816 746.261C992.917 754.017 998.01 761.802 1005.9 763.569C1000.22 771.154 992.835 777.139 984.568 781.796C975.593 786.854 965.894 790.443 956.174 793.773C946.949 796.931 937.679 799.739 928.148 801.626C928.206 802.379 928.255 803.122 928.291 803.853C939.545 801.802 950.514 798.029 961.239 794.191C971.118 790.658 980.96 786.667 989.82 780.981C997.022 776.358 1003.24 770.585 1008.21 763.722C1008.5 763.576 1008.67 763.319 1008.72 763.02C1009.71 761.613 1010.66 760.178 1011.55 758.682C1017.14 749.197 1020.43 738.504 1022.31 727.699C1024.45 715.355 1025.04 702.665 1024.94 690.152C1024.94 690.106 1024.92 690.078 1024.91 690.04C1031.36 688.689 1036.96 687.081 1041.42 685.416C1041.34 684.775 1041.26 684.134 1041.17 683.491C1034.98 685.812 1026.37 688.061 1016.23 689.629C1016.34 689.376 1016.34 689.103 1016.29 688.692C1016.22 688.054 1016.14 687.418 1016.06 686.78C1015.9 685.506 1015.72 684.234 1015.54 682.965C1015.35 681.696 1015.15 680.43 1014.94 679.164C1014.73 677.915 1014.65 676.488 1014.1 675.334C1013.83 674.757 1013.09 675.466 1013.05 675.844C1012.92 677.195 1013.35 678.612 1013.54 679.942C1013.71 681.104 1013.86 682.266 1014.01 683.427C1014.16 684.635 1014.3 685.843 1014.43 687.053C1014.49 687.589 1014.55 688.128 1014.6 688.666C1014.65 689.123 1014.63 689.519 1014.8 689.854C1013.46 690.05 1012.08 690.231 1010.69 690.403C1010.7 689.432 1010.64 688.444 1010.59 687.489C1010.52 686.22 1010.44 684.949 1010.33 683.683C1010.23 682.409 1010.1 681.14 1009.94 679.871C1009.78 678.607 1009.74 677.147 1009.2 675.98C1008.91 675.362 1008.13 676.046 1008.05 676.455C1007.84 677.575 1008.16 678.839 1008.27 679.963C1008.39 681.214 1008.51 682.467 1008.61 683.721C1008.71 685.031 1008.79 686.343 1008.86 687.653C1008.9 688.623 1008.9 689.616 1008.96 690.594C996.491 691.996 982.244 692.297 967.487 690.525C943.296 687.62 909.933 678.091 886.181 649.46C885.773 649.94 885.354 650.41 884.928 650.874C909.058 679.804 942.793 689.445 967.262 692.384C973.661 693.157 979.936 693.551 985.997 693.643ZM1000.47 693.283C1008.78 692.757 1016.48 691.712 1023.29 690.364C1023.28 690.395 1023.26 690.42 1023.26 690.454C1022.43 704.338 1022.27 718.263 1019.38 731.927C1017.2 742.262 1013.49 752.457 1007.57 761.261C1007.48 761.391 1007.38 761.511 1007.3 761.638C1002.93 761.072 999.427 758.054 997.155 754.408C991.673 745.62 994.262 734.95 996.545 725.58C997.852 720.211 998.98 714.821 999.685 709.337C1000.03 706.618 1000.28 703.888 1000.44 701.149C1000.59 698.542 1000.73 695.892 1000.47 693.283Z" fill="#37474F"/>
<path d="M893.985 728.006C893.985 728.006 881.171 709.306 887.824 686.869C888.776 722.644 912.133 732.908 912.133 732.908L872.674 743.389C872.413 743.442 872.268 743.481 872.268 743.481L839.968 752.276C839.968 752.276 842.431 749.256 845.314 743.121L893.985 728.006Z" fill="#37474F"/>
<path d="M848.19 749.949L831.377 754.547C831.377 754.547 839.479 744.876 844.587 715.575C849.694 686.273 841.312 663.082 831.291 652.311L850.135 655.423C850.135 655.423 864.083 679.111 860.241 715.318C857.683 739.425 848.19 749.949 848.19 749.949Z" fill="#263238"/>
<path d="M869.747 744.15L892.759 738.007C892.759 738.007 918.875 735.765 934.975 771.836C950.634 806.914 936.025 829.145 936.025 829.145L920.203 830.758C920.203 830.758 933.25 797.473 916.644 771.017C900.038 744.558 879.704 744.298 869.747 744.15Z" fill="#263238"/>
<path d="M1068.98 394.867C1071.98 401.335 1071.32 408.44 1074.5 416.115C1077.65 423.739 1085.44 428.179 1091.21 434.071C1096.45 439.418 1100.28 446.855 1099.03 454.234C1097.23 464.806 1085.8 472.177 1085.26 482.888C1084.97 488.625 1087.94 493.964 1089.25 499.558C1091.03 507.14 1089.61 515.42 1085.41 521.979C1082.1 527.155 1076.92 531.482 1071.1 533.558C1064.42 535.943 1056.56 533.515 1049.51 534.212C1040.01 535.149 1030.76 539.987 1021.37 538.34C1016.4 537.472 1011.94 534.853 1007.66 532.172C1003.28 529.422 998.748 526.297 996.683 521.553C992.534 512.022 1000.1 501.273 999.078 490.93C998.585 485.954 996.129 481.43 994.216 476.811C991.592 470.477 989.919 463.627 990.384 456.784C990.849 449.942 993.614 443.102 998.748 438.555C1003.01 434.786 1008.59 432.779 1012.87 429.029C1018.16 424.385 1021.03 417.111 1020.32 410.102C1019.32 400.078 1023.12 386.271 1033.73 381.652C1043.45 377.419 1055.75 381.042 1063.47 387.696C1066.13 389.993 1067.82 392.383 1068.98 394.867Z" fill="#263238"/>
<path d="M726.066 485.486C729.673 481.847 731.517 486.195 731.859 485.657C732.203 485.118 727.066 481.173 732.387 476.856C736.12 473.825 737.414 477.515 738.89 477.816C738.89 477.816 733.973 473.57 740.409 468.341C744.377 465.114 747.387 470.899 747.362 470.077C747.349 469.71 740.248 458.049 734.415 448.115C728.874 438.683 731.984 435.316 733.498 434.277C734.864 433.342 736.763 433.674 741.602 440.42C746.368 447.071 760.743 467.373 763.919 471.543C767.098 475.709 769.219 477.573 769.965 471.435C770.667 465.678 771.269 460.242 773.976 456.397C778.503 449.968 783.045 451.837 782.833 456.288C782.534 462.566 783.665 469.702 784.257 479.795C784.566 485.059 785.83 488.736 785.787 492.387C785.669 502.456 794.756 512.036 806.291 522.228C817.362 532.012 835.127 546.049 835.127 546.049C835.127 546.049 851.24 538.645 878.163 524.863C919.644 503.628 929.065 507.188 943.892 506.585C944.665 507.159 914.186 563.263 914.186 563.263C914.186 563.263 896.137 574.063 861.483 590.01C835.277 602.071 829.778 605.398 814.244 591.702C806.896 585.223 798.793 576.611 791.141 566.776C780.359 552.915 775.086 544.16 770.057 537.795C765.027 531.43 761.373 530.763 752.887 525.335C745.327 520.5 742.089 516.762 736.827 510.032C734.312 506.815 730.705 501.578 727.462 496.709C724.296 491.96 723.41 488.164 726.066 485.486Z" fill="#FFBDA7"/>
<path d="M743.37 500.968C744.455 498.754 742.542 495.308 742.542 495.308C742.542 495.308 744.064 497.24 746.288 497.641C748.512 498.042 751.251 496.191 751.68 494.194C752.112 492.198 750.158 489.54 750.158 489.54C750.158 489.54 751.652 490.694 753.975 490.96C756.301 491.225 758.096 489.512 758.523 486.67C758.949 483.829 754.785 477.548 750.587 471.872C750.587 471.872 753.544 473.981 756.575 478.01C758.903 481.104 760.458 483.318 760.721 485.978C762.1 483.425 764.012 481.222 766.417 479.629C761.579 486.027 759.776 501.685 763.67 511.275C758.773 505.936 757.254 498.468 758.612 491.853C756.97 493.127 754.736 493.303 753.319 492.241C753.58 493.684 754.075 495.777 751.07 498.272C748.065 500.766 745.315 499.232 745.315 499.232C745.315 499.232 746.349 501.377 743.63 503.345C740.908 505.314 738.314 504.024 736.246 501.397C738.24 503.521 742.282 503.182 743.37 500.968Z" fill="#F0997A"/>
<path d="M895.206 618.921L894.346 637.712C894.346 637.712 903.254 658.763 946.221 671.56C986.119 683.447 1021.77 676.459 1038.58 667.087C1046.06 643.077 1057.66 603.242 1060.45 592.029C1069.06 557.512 1060.91 536.773 1049.65 522.233C1037.76 518.896 1023.6 514.961 1023.6 514.961C1023.6 514.961 1002.76 511.032 968.88 506.975L943.9 506.592C921.281 518.13 904.98 536.944 891.098 556.943C877.433 576.671 881.654 603.219 895.206 618.921Z" fill="#25D360"/>
<path d="M939.739 614.224C939.739 614.224 951.848 631.892 978.805 631.052C1006.62 630.186 1013.82 607.782 1013.82 607.782C1013.82 607.782 1012.58 637.797 979.356 638.839C948.718 639.802 939.739 614.224 939.739 614.224Z" fill="#48ED80"/>
<path d="M929.311 391.626C931.126 387.636 933.414 383.862 936.289 380.492C943.8 371.686 955.006 366.138 966.697 363.963C979.465 361.586 993.247 361.113 1005.57 364.905C1015.75 368.038 1021.77 371.329 1031.72 378.96C1052.13 394.624 1056.33 423.766 1042.58 450.604C1035.51 464.397 1026.71 474.244 1015.97 485.734L1005.52 482.552C1001.92 474.03 992.949 475.753 984.659 473.9C979.363 471.706 976.269 466.12 970.974 463.927C965.594 461.695 959.352 463.488 953.564 462.597C949.463 461.964 945.457 459.829 941.211 460.347C938.97 460.621 938.668 461.695 937.415 459.75C936.473 458.287 936.547 455.027 936.23 453.313C934.606 444.551 932.98 435.786 931.356 427.023C928.211 427.031 925.063 426.786 921.958 426.293C922.76 418.235 923.569 410.147 925.599 402.291C926.536 398.653 927.751 395.06 929.311 391.626Z" fill="#263238"/>
<path d="M964.356 506.905C968.285 506.591 968.742 503.79 968.788 502.276L969.11 495.401C960.559 495.5 951.276 493.307 946.366 489.756C938.122 483.794 931.721 477.191 931.772 448.67C931.792 437.579 935.824 427.06 935.625 424.469C934.573 410.709 936.391 398.439 950.203 391.607C960.967 386.283 974.818 387.591 986.285 389.569C990.326 390.266 999.755 391.145 1001.61 395.794C1001.78 396.243 1001.65 396.746 1001.53 397.213C998.933 407.26 1003.68 418.749 1012.61 424.037C1010.91 427.481 1009.92 431.273 1009.72 435.108C1009.62 436.897 1009.7 438.741 1010.39 440.4C1011.07 442.057 1012.45 443.51 1014.2 443.898C1018.18 444.787 1019.03 439.872 1021.06 437.546C1023.01 435.304 1025.51 433.53 1028.36 432.626C1033.35 431.035 1039.07 432.396 1042.14 436.828C1047.06 443.924 1047.06 454.941 1037.87 465.1C1028.93 474.996 1018.75 468.827 1018.6 466.849C1018.6 466.849 1017.13 498.344 1016.99 503.624C1016.85 508.904 1017.05 511.902 1023.6 514.96C1023.62 514.971 1008.67 528.888 979.437 524.476C957.863 521.221 964.356 506.905 964.356 506.905Z" fill="#FFBDA7"/>
<path d="M984.041 447.073C983.834 452.396 987.983 456.88 993.306 457.084C998.63 457.291 1003.11 453.142 1003.32 447.819C1003.53 442.495 999.378 438.012 994.054 437.805C988.728 437.601 984.248 441.75 984.041 447.073Z" fill="#FFA8A7"/>
<path d="M945.076 442.015C944.869 447.339 940.386 451.487 935.063 451.281C933.896 451.235 932.803 450.954 931.782 450.535C931.777 449.92 931.772 449.31 931.772 448.671C931.782 442.567 933.007 436.641 934.075 432.109C934.639 432.03 935.216 431.979 935.806 432.002C941.132 432.208 945.281 436.692 945.076 442.015Z" fill="#FFA8A7"/>
<path d="M939.363 420.11L950.831 416.845C950.045 413.617 946.836 411.733 943.667 412.634C940.504 413.541 938.576 416.885 939.363 420.11Z" fill="#263238"/>
<path d="M994.289 422.426L983.17 417.711C984.368 414.565 987.825 413.074 990.896 414.376C993.965 415.681 995.484 419.286 994.289 422.426Z" fill="#263238"/>
<path d="M951.357 430.5C951.357 433.199 949.169 435.385 946.473 435.385C943.774 435.385 941.589 433.197 941.589 430.5C941.589 427.802 943.777 425.616 946.473 425.616C949.172 425.616 951.357 427.802 951.357 430.5Z" fill="#263238"/>
<path d="M989.618 434.456C989.618 437.155 987.43 439.341 984.734 439.341C982.036 439.341 979.85 437.153 979.85 434.456C979.85 431.758 982.038 429.572 984.734 429.572C987.43 429.572 989.618 431.758 989.618 434.456Z" fill="#263238"/>
<path d="M969.116 495.406C988.073 494.162 1003.41 490.728 1010.37 476.257C1010.37 476.257 1007.74 488.719 997.418 494.617C985.145 501.628 968.858 500.951 968.858 500.951L969.116 495.406Z" fill="#F0997A"/>
<path d="M949.695 449.588L965.141 457.628L969.403 427.48L949.695 449.588Z" fill="#F0997A"/>
<path d="M999.605 429.569C994.101 428.849 988.66 427.651 983.362 425.997C982.9 425.851 982.412 425.688 982.101 425.315C981.774 424.927 981.705 424.388 981.656 423.883C980.883 416.088 981.409 408.165 983.206 400.539C979.749 408.058 977.028 415.917 975.095 423.967C971.446 423.612 967.806 423.196 964.172 422.718C963.736 422.662 963.271 422.591 962.937 422.305C962.505 421.935 962.411 421.312 962.354 420.745C961.772 414.653 962.676 408.53 963.575 402.477C960.769 408.081 958.729 414.068 957.526 420.221C949.765 420.423 941.998 420.515 934.234 420.497C932.562 408.579 937.293 399.883 943.796 392.131C950.173 384.525 960.241 380.946 970.088 379.69C979.721 378.462 990.156 379.345 998.009 385.054C1000.11 386.581 1001.96 388.409 1003.81 390.232C1004.75 391.159 1006.38 392.205 1006.58 393.559C1006.74 394.667 1005.67 396.686 1005.37 397.759C1004.39 401.244 1003.52 404.759 1002.77 408.298C1001.26 415.312 1000.21 422.42 999.605 429.569Z" fill="#263238"/>
<path d="M1033.8 432.085C1032.55 404.256 1015.73 366.992 974.197 362.82C986.858 356.149 1008.9 365.026 1008.9 365.026C1008.9 365.026 1051.97 384.287 1037.68 433.109L1033.8 432.085Z" fill="#25D360"/>
<path d="M961.067 466.443C963.587 466.956 966.225 467.025 968.745 466.473C971.211 465.935 973.473 464.982 975.751 463.884C975.865 463.828 975.98 463.772 976.095 463.718C976.307 463.616 976.603 463.53 976.744 463.721C976.861 463.882 976.759 464.109 976.649 464.275C975.814 465.544 974.408 466.438 973.113 467.178C969.329 469.338 964.739 469.741 960.774 467.804C960.317 467.579 960.495 466.328 961.067 466.443Z" fill="#B16668"/>
<path d="M1049.65 522.231C1082.41 536.087 1085.07 553.03 1084.83 600.256C1084.58 647.482 1086.34 682.982 1086.34 682.982C1086.69 690.064 1087.16 697.129 1087.38 704.219C1087.83 718.506 1087.92 732.832 1089.11 747.084C1089.52 751.927 1089.67 758.274 1092.86 762.408C1095.17 765.395 1097.81 767.816 1101.1 769.636C1104.52 771.523 1105.52 771.577 1112.63 773.297C1114.63 773.782 1119.49 774.388 1124.31 776.545C1126.53 777.538 1128.63 779.098 1131.04 779.479C1133.47 779.859 1135.73 779.578 1138.04 780.541C1140.51 781.567 1142.29 783.027 1144.11 784.958C1147.54 788.578 1152.47 791.246 1152.47 791.246C1159.81 791.468 1161.28 795.165 1158.26 798.244C1154.73 801.837 1148.04 802.761 1143.24 802.912C1129.44 803.348 1121.48 803.43 1107.93 800.647C1103.4 799.715 1096.86 797.509 1092.89 801.002C1088.91 804.502 1096.73 805.973 1099.04 806.67C1103.86 808.12 1105.48 808.751 1108.75 811.158C1116.04 816.517 1114.3 826.396 1105.03 822.168C1098.85 819.346 1096.49 820.015 1089.91 818.501C1083.49 817.023 1075.87 815.169 1070.84 810.591C1068.67 808.615 1066.79 806.06 1064.91 803.767C1062.45 800.775 1058.46 798.114 1057.03 794.504C1055.03 789.408 1054.71 783.594 1055.04 778.199C1055.23 775.016 1055.3 772.23 1054.68 769.154C1053.69 764.234 1053.96 759.48 1053.05 754.534C1052.13 749.504 1051.09 744.498 1050.01 739.501C1047.69 728.757 1045.16 718.06 1042.93 707.295C1041.18 698.814 1039.32 690.13 1039.09 681.442C1038.58 662.306 1035.14 626.148 1033.17 605.559C1031.21 584.973 1025.21 543.065 1049.65 522.231Z" fill="#FFBDA7"/>
<path d="M1082.92 322.656L1080.34 314.631C1078.96 308.148 1105.41 323.416 1106.79 329.899L1098.27 352.837C1097.94 353.585 1097.44 354.139 1096.84 354.506C1094.97 355.658 1088.08 359.544 1087.48 359.911C1085.59 361.065 1082.81 360.343 1082.03 357.887L1070.99 320.028C1070.31 316.832 1076.4 318.93 1082.92 322.656Z" fill="#25D360"/>
<path d="M1046.97 168.473L1147.51 226.473C1149.39 227.555 1150.91 230.193 1150.91 232.358V351.491C1150.91 353.659 1149.38 356.279 1147.49 357.346L1141.27 360.861C1139.39 361.926 1136.33 361.911 1134.46 360.828L1033.91 302.828C1032.04 301.745 1030.52 299.108 1030.52 296.94V177.807C1030.52 175.639 1032.04 173.02 1033.93 171.953L1040.15 168.437C1042.04 167.372 1045.09 167.387 1046.97 168.473Z" fill="#25D360"/>
<path d="M1033.91 175.85L1134.46 233.851C1136.33 234.933 1137.85 237.571 1137.85 239.736V358.869C1137.85 361.037 1136.33 361.915 1134.46 360.83L1095.98 338.635L1088.91 358.238C1087.55 361.353 1083.06 361.124 1082.03 357.889L1072.63 325.167L1033.91 302.832C1032.04 301.75 1030.52 299.112 1030.52 296.945V177.811C1030.51 175.646 1032.03 174.768 1033.91 175.85Z" fill="#48ED80"/>
<path opacity="0.7" d="M1030.57 177.195C1030.83 175.485 1032.23 174.872 1033.93 175.845L1134.46 233.847C1135.4 234.396 1136.25 235.323 1136.86 236.39L1149.85 228.889C1149.24 227.868 1148.42 226.99 1147.51 226.471L1046.96 168.471C1045.1 167.388 1042.05 167.371 1040.15 168.44L1033.94 171.953C1032.23 172.926 1030.8 175.171 1030.57 177.195Z" fill="white"/>
<path d="M1084.58 302.453L1093.88 300.4C1094.26 300.257 1094.75 300.119 1095.31 299.953C1101.64 298.069 1116.47 293.655 1116.47 271.644C1116.47 260.234 1109.38 246.893 1100.64 241.846C1092.95 237.411 1086.55 240.858 1085.11 249.503C1083.67 239.196 1077.27 228.355 1069.58 223.918C1060.84 218.87 1053.76 224.027 1053.76 235.437C1053.76 257.63 1068.07 278.933 1074.19 288.03C1074.59 288.638 1074.96 289.182 1075.27 289.656L1084.58 302.453Z" fill="white"/>
</svg>
