<svg id="SvgjsSvg1001" width="288" height="288" xmlns="http://www.w3.org/2000/svg" version="1.1" xmlns:xlink="http://www.w3.org/1999/xlink" xmlns:svgjs="http://svgjs.com/svgjs"><defs id="SvgjsDefs1002"></defs><g id="SvgjsG1008"><svg xmlns="http://www.w3.org/2000/svg" xmlns:svgjs="http://svgjs.com/svgjs" xmlns:xlink="http://www.w3.org/1999/xlink" viewBox="0 0 288 288" width="288" height="288"><svg xmlns="http://www.w3.org/2000/svg" data-name="Group 3699" viewBox="0 0 94.809 90.958" width="288" height="288"><g data-name="Group 801"><path fill="#ffc061" d="M46.631,77.1,24.775,88.59a6.421,6.421,0,0,1-9.317-6.766l4.174-24.342L1.949,40.237A6.425,6.425,0,0,1,5.5,29.279l24.444-3.544L40.872,3.585a6.418,6.418,0,0,1,11.518,0l10.926,22.15,24.444,3.544a6.426,6.426,0,0,1,3.558,10.958L73.631,57.482,77.8,81.824a6.42,6.42,0,0,1-9.317,6.766Z" class="colorff6171 svgShape colorffd561" data-name="Path 6202" transform="rotate(1 .78 89.322)"></path></g></svg></svg></g></svg>