<svg width="104" height="99" viewBox="0 0 104 99" fill="none" xmlns="http://www.w3.org/2000/svg">
<path d="M103.057 49.1955C102.783 51.0146 102.145 52.7599 101.182 54.327C100.218 55.894 98.9482 57.2505 97.4481 58.3155C95.8811 59.566 94.579 61.1161 93.6177 62.8755C93.3031 64.9757 93.4274 67.1184 93.9825 69.1682C94.5492 70.8505 94.7725 72.6294 94.6394 74.3996C94.5062 76.1698 94.0192 77.8953 93.2073 79.4738C90.6368 82.0234 87.1605 83.45 83.5401 83.4411C81.4492 83.5437 79.4012 84.0712 77.5209 84.9915C76.0751 86.4757 74.9566 88.2466 74.2377 90.1898C72.6873 93.4274 70.9545 97.0754 67.4433 98.2154C65.7059 98.4918 63.9306 98.4162 62.223 97.9932C60.5153 97.5702 58.9101 96.8084 57.5025 95.753C55.6982 94.5641 53.6622 93.7714 51.5289 93.4275C49.3956 93.7714 47.3596 94.5641 45.5553 95.753C43.1985 97.2891 40.5101 98.2425 37.7121 98.5346C36.9851 98.5452 36.2613 98.4374 35.5689 98.2154C32.1033 97.0754 30.3705 93.4274 28.8201 90.1898C28.1011 88.2466 26.9827 86.4757 25.5369 84.9915C23.66 84.0555 21.6118 83.5124 19.5177 83.3955C15.8973 83.4044 12.421 81.9778 9.85051 79.4282C9.03853 77.8497 8.55155 76.1242 8.4184 74.354C8.28525 72.5838 8.50862 70.8049 9.07531 69.1227C9.63042 67.0728 9.75464 64.9301 9.44011 62.8298C8.47882 61.0705 7.17668 59.5204 5.60971 58.2698C-0.998953 47.0007 9.42159 41.4641 8.4187 40.2109L51.5289 66.5007L93.9825 40.2122H97.4481C98.9331 41.2617 100.194 42.5966 101.157 44.1391C102.12 45.6815 102.766 47.4005 103.057 49.1955Z" fill="#4C89FF" fill-opacity="0.32"/>
<path d="M45.0916 40.7708H57.3836L51.2376 30.0154L45.0916 40.7708ZM60.8376 40.7708H74.4725C74.4235 40.6853 74.3683 40.6034 74.3072 40.526L66.8308 31.1806L60.8376 40.7708ZM59.1086 39.8423L65.2438 30.0262C65.1453 30.0098 65.0457 30.0011 64.9459 30H53.4843L59.1086 39.8423ZM44.6583 42.7292L51.2376 69.046L57.8168 42.7292H44.6583ZM59.8354 42.7292L53.6789 67.3552L74.2742 43.0153C74.3496 42.9261 74.4168 42.8303 74.4752 42.7292H59.8354ZM42.6398 42.7292H28C28.0584 42.8302 28.1256 42.9258 28.201 43.0148L48.7963 67.3552L42.6398 42.7292ZM43.3666 39.8423L48.9909 30H37.5292C37.4295 30.0005 37.3299 30.0087 37.2313 30.0245L43.3666 39.8423ZM41.6376 40.7708L35.6444 31.1806L28.1667 40.526C28.1056 40.6034 28.0504 40.6853 28.0015 40.7708H41.6376Z" fill="#4C89FF"/>
<path d="M37.7112 98.5343C36.9842 98.5449 36.2604 98.4371 35.568 98.2151C32.1024 97.0751 30.3696 93.4271 28.8192 90.1895C28.1002 88.2463 26.9818 86.4754 25.536 84.9911C23.6591 84.0551 21.6109 83.5121 19.5168 83.3951C15.8964 83.4041 12.4201 81.9775 9.8496 79.4279C9.03763 77.8494 8.55064 76.1239 8.41749 74.3537C8.28434 72.5835 8.50771 70.8046 9.0744 69.1224C9.62952 67.0725 9.75373 64.9298 9.4392 62.8295C8.47791 61.0702 7.17577 59.5201 5.6088 58.2696C4.10872 57.2046 2.83884 55.8481 1.87512 54.2811C0.911404 52.714 0.273647 50.9687 0 49.1495C0.273647 47.3304 0.911404 45.5851 1.87512 44.018C2.83884 42.451 4.10872 41.0945 5.6088 40.0295C7.17577 38.779 8.47791 37.2288 9.4392 35.4695C9.75373 33.3693 9.62952 31.2266 9.0744 29.1767C8.50771 27.4945 8.28434 25.7156 8.41749 23.9454C8.55064 22.1752 9.03763 20.4497 9.8496 18.8711C12.4349 16.355 15.9094 14.9619 19.5168 14.9951C21.6109 14.8782 23.6591 14.3352 25.536 13.3991C26.9818 11.9149 28.1002 10.144 28.8192 8.20075C30.3696 4.96315 32.1024 1.31515 35.568 0.175149C37.3054 -0.101165 39.0807 -0.0255806 40.7883 0.397416C42.496 0.820413 44.1012 1.5822 45.5088 2.63755C47.3131 3.82651 49.3491 4.61916 51.4824 4.96315C53.6157 4.61916 55.6517 3.82651 57.456 2.63755C58.8749 1.57029 60.4954 0.801822 62.2197 0.378589C63.944 -0.0446444 65.7362 -0.113852 67.488 0.175149C70.9992 1.31515 72.732 4.73515 74.2824 8.20075C75.0014 10.144 76.1198 11.9149 77.5656 13.3991C79.4285 14.3292 81.4606 14.8721 83.5392 14.9951C87.1596 14.9862 90.6359 16.4128 93.2064 18.9623C94.0196 20.5487 94.5072 22.2819 94.6403 24.0596C94.7735 25.8373 94.5495 27.6237 93.9816 29.3135C93.4038 31.3441 93.2793 33.4768 93.6168 35.5607C94.5781 37.3201 95.8802 38.8702 97.4472 40.1208C98.9473 41.1857 100.217 42.5422 101.181 44.1092C102.145 45.6763 102.782 47.4216 103.056 49.2407C102.782 51.0599 102.145 52.8052 101.181 54.3723C100.217 55.9393 98.9473 57.2958 97.4472 58.3608C95.8802 59.6113 94.5781 61.1614 93.6168 62.9207C93.2799 65.02 93.4044 67.1673 93.9816 69.2135C94.5483 70.8958 94.7717 72.6747 94.6385 74.4449C94.5053 76.2151 94.0184 77.9406 93.2064 79.5191C90.6359 82.0687 87.1596 83.4953 83.5392 83.4864C81.4483 83.589 79.4003 84.1165 77.52 85.0368C76.0742 86.521 74.9558 88.2919 74.2368 90.2351C72.6864 93.4727 70.9536 97.1207 67.4424 98.2607C65.705 98.5371 63.9297 98.4615 62.2221 98.0385C60.5144 97.6155 58.9092 96.8537 57.5016 95.7983C55.6973 94.6094 53.6613 93.8167 51.528 93.4727C49.3947 93.8167 47.3587 94.6094 45.5544 95.7983C43.1934 97.3183 40.5053 98.256 37.7112 98.5343ZM37.7112 4.41595H37.0272C35.3856 4.96315 34.1544 7.56235 32.9232 10.1159C31.9646 12.7372 30.4025 15.096 28.3632 17.0015C25.8669 18.5252 23.0302 19.4029 20.1096 19.5551C17.3736 19.9655 14.5008 20.3303 13.5432 21.6983C12.5856 23.0663 13.0872 25.8023 13.5432 28.5383C14.2237 31.3246 14.2237 34.2337 13.5432 37.02C12.4143 39.562 10.6946 41.7976 8.5272 43.5408C6.4752 45.5016 4.332 47.508 4.332 49.2864C4.332 51.0648 6.4752 53.0711 8.5272 55.0319C10.6946 56.7751 12.4143 59.0107 13.5432 61.5527C14.2237 64.339 14.2237 67.2481 13.5432 70.0343C13.0416 72.7703 12.54 75.5976 13.5432 76.8744C14.5464 78.1512 17.3736 78.6072 20.1096 79.0176C22.9677 79.1367 25.7537 79.9505 28.2264 81.3887C30.2657 83.2943 31.8278 85.6531 32.7864 88.2743C34.0176 90.8279 35.2488 93.4272 36.8904 93.9743C38.532 94.5215 40.8576 93.108 43.2288 91.8312C45.6798 90.2327 48.4794 89.2474 51.3912 88.9583C54.303 89.2474 57.1026 90.2327 59.5536 91.8312C61.9248 93.108 64.4328 94.4759 65.892 93.9743C67.3512 93.4728 68.7648 90.8279 69.996 88.2743C70.9546 85.6531 72.5167 83.2943 74.556 81.3887C77.0925 79.8432 79.9789 78.9648 82.9464 78.8352C85.6824 78.4248 88.5552 78.06 89.5128 76.692C90.4704 75.324 89.9688 72.588 89.5128 69.852C88.8323 67.0657 88.8323 64.1566 89.5128 61.3703C90.6417 58.8283 92.3614 56.5927 94.5288 54.8495C96.5808 52.8887 98.724 50.8823 98.724 49.1039C98.724 47.3255 96.5808 45.3192 94.5288 43.3584C92.3614 41.6152 90.6417 39.3796 89.5128 36.8376C88.8323 34.0513 88.8323 31.1422 89.5128 28.3559C90.0144 25.6199 90.516 22.8383 89.5128 21.5159C88.5096 20.1935 85.728 19.8743 82.9464 19.5551C80.0883 19.4361 77.3023 18.6222 74.8296 17.1839C72.7903 15.2784 71.2282 12.9196 70.2696 10.2983C69.0384 7.74475 67.8072 5.14555 66.1656 4.59835C64.524 4.05115 62.1984 5.46475 59.8272 6.74155C57.3762 8.34001 54.5766 9.32534 51.6648 9.61435C48.753 9.32534 45.9534 8.34001 43.5024 6.74155C41.7557 5.57018 39.7829 4.77795 37.7112 4.41595Z" fill="#4C89FF"/>
</svg>
