<svg width="207" height="211" viewBox="0 0 207 211" fill="none" xmlns="http://www.w3.org/2000/svg">
<rect width="206.972" height="211" rx="102.5" fill="#F16161"/>
<path d="M105.861 91.3821C112.887 91.3821 118.582 85.6868 118.582 78.6613C118.582 71.6357 112.887 65.9404 105.861 65.9404C98.8359 65.9404 93.1406 71.6357 93.1406 78.6613C93.1406 85.6868 98.8359 91.3821 105.861 91.3821Z" fill="white"/>
<path d="M76.7852 84.1111C76.7851 91.2132 79.3932 98.0681 84.1142 103.374C84.3492 100.426 85.3357 97.5878 86.9795 95.1296C88.6232 92.6714 90.8695 90.6754 93.504 89.3321C91.452 86.9621 90.1243 84.0523 89.6791 80.9493C89.2338 77.8462 89.6898 74.6805 90.9926 71.8292C92.2954 68.9779 94.3902 66.561 97.0276 64.8664C99.665 63.1718 102.734 62.2709 105.869 62.2709C109.004 62.2709 112.072 63.1718 114.71 64.8664C117.347 66.561 119.442 68.9779 120.745 71.8292C122.048 74.6805 122.503 77.8462 122.058 80.9493C121.613 84.0523 120.285 86.9621 118.233 89.3321C120.865 90.6773 123.109 92.6741 124.75 95.1321C126.392 97.5902 127.376 100.428 127.61 103.374C130.736 99.8512 132.96 95.6217 134.089 91.0494C135.219 86.4771 135.22 81.6988 134.095 77.1257C132.969 72.5525 130.749 68.3212 127.626 64.7958C124.503 61.2704 120.57 58.5564 116.166 56.8873C111.762 55.2181 107.018 54.6438 102.343 55.2136C97.6682 55.7835 93.2015 57.4805 89.3273 60.1586C85.4532 62.8368 82.2876 66.416 80.1028 70.5883C77.9181 74.7607 76.7795 79.4013 76.7852 84.1111Z" fill="white"/>
<path d="M105.864 113.186C112.475 113.188 118.888 110.929 124.037 106.784V104.809C124.041 102.04 123.204 99.3347 121.637 97.0516C120.07 94.7685 117.847 93.0148 115.262 92.0225C112.515 93.9686 109.231 95.0139 105.864 95.0139C102.498 95.0139 99.2144 93.9686 96.4674 92.0225C93.8822 93.0148 91.6591 94.7685 90.0922 97.0516C88.5252 99.3347 87.6882 102.04 87.6918 104.809V106.777C92.8415 110.923 99.2534 113.184 105.864 113.186ZM126.358 132.727C126.479 132.609 126.565 132.459 126.606 132.294C126.647 132.13 126.64 131.957 126.588 131.796C126.536 131.634 126.439 131.491 126.309 131.382C126.18 131.272 126.022 131.202 125.854 131.177L113.561 129.411C113.27 129.369 112.993 129.257 112.755 129.085C112.516 128.913 112.323 128.685 112.192 128.422L106.688 117.366C106.613 117.212 106.497 117.083 106.352 116.992C106.208 116.902 106.041 116.853 105.87 116.853C105.699 116.853 105.532 116.902 105.387 116.992C105.243 117.083 105.127 117.212 105.052 117.366L99.5222 128.43C99.3908 128.692 99.1979 128.918 98.9599 129.09C98.722 129.261 98.446 129.373 98.1556 129.414L85.8891 131.179C85.7207 131.203 85.5624 131.274 85.4323 131.384C85.3023 131.493 85.2056 131.637 85.1533 131.799C85.101 131.961 85.0953 132.135 85.1367 132.3C85.1781 132.465 85.265 132.615 85.3875 132.733L94.2522 141.274C94.4656 141.48 94.6254 141.735 94.7176 142.017C94.8097 142.299 94.8315 142.599 94.781 142.891L92.6929 154.983C92.6637 155.15 92.6817 155.322 92.7449 155.479C92.8082 155.636 92.9141 155.773 93.0507 155.873C93.1874 155.973 93.3494 156.033 93.5183 156.046C93.6872 156.059 93.8565 156.025 94.0068 155.947L105.041 150.211C105.3 150.077 105.587 150.007 105.879 150.007C106.171 150.007 106.458 150.077 106.717 150.211L117.749 155.947C117.9 156.025 118.069 156.059 118.238 156.046C118.407 156.033 118.569 155.973 118.705 155.873C118.842 155.773 118.948 155.636 119.011 155.479C119.074 155.322 119.093 155.15 119.063 154.983L116.966 142.877C116.916 142.584 116.937 142.284 117.03 142.002C117.122 141.72 117.282 141.465 117.495 141.259L126.358 132.727ZM107.5 128.753L104.338 135.075C104.207 135.338 104.014 135.564 103.776 135.736C103.538 135.907 103.262 136.019 102.971 136.06L96.1367 137.043C95.8981 137.083 95.654 137.075 95.4187 137.019C95.1834 136.963 94.9616 136.86 94.7664 136.718C94.5711 136.575 94.4064 136.394 94.2817 136.187C94.1571 135.98 94.075 135.75 94.0405 135.511C94.0059 135.271 94.0194 135.027 94.0803 134.793C94.1411 134.559 94.2481 134.34 94.395 134.147C94.5418 133.955 94.7255 133.794 94.9353 133.674C95.1451 133.554 95.3769 133.477 95.6169 133.447L101.514 132.598L104.24 127.127C104.457 126.695 104.836 126.368 105.294 126.216C105.753 126.064 106.253 126.101 106.684 126.318C107.115 126.535 107.443 126.914 107.595 127.372C107.746 127.831 107.71 128.331 107.493 128.762L107.5 128.753Z" fill="white"/>
<path d="M123.964 123.655L130.34 129.801C130.554 130.007 130.714 130.262 130.806 130.544C130.898 130.826 130.92 131.126 130.869 131.419L129.361 140.174C129.33 140.343 129.347 140.517 129.411 140.676C129.475 140.835 129.582 140.973 129.721 141.074C129.859 141.175 130.024 141.234 130.195 141.245C130.366 141.256 130.537 141.219 130.687 141.137L138.611 136.994C138.87 136.862 139.156 136.794 139.447 136.794C139.737 136.794 140.024 136.862 140.283 136.994L148.206 141.137C148.357 141.219 148.527 141.256 148.698 141.245C148.87 141.234 149.034 141.175 149.173 141.074C149.311 140.973 149.419 140.835 149.482 140.676C149.546 140.517 149.563 140.343 149.532 140.174L148.006 131.433C147.96 131.14 147.985 130.839 148.08 130.558C148.175 130.276 148.337 130.022 148.551 129.816L154.93 123.655C155.049 123.537 155.133 123.388 155.173 123.225C155.213 123.062 155.206 122.891 155.155 122.731C155.103 122.571 155.008 122.429 154.881 122.319C154.753 122.21 154.598 122.139 154.432 122.112L145.589 120.84C145.299 120.8 145.023 120.69 144.786 120.519C144.548 120.348 144.356 120.121 144.226 119.859L140.264 111.914C140.19 111.76 140.074 111.631 139.929 111.54C139.785 111.449 139.617 111.401 139.447 111.401C139.276 111.401 139.109 111.449 138.964 111.54C138.819 111.631 138.703 111.76 138.629 111.914L134.667 119.855C134.537 120.118 134.345 120.344 134.108 120.515C133.87 120.686 133.594 120.797 133.304 120.837L124.462 122.109C124.295 122.134 124.139 122.206 124.01 122.315C123.882 122.425 123.787 122.568 123.735 122.728C123.683 122.889 123.677 123.061 123.718 123.224C123.758 123.388 123.843 123.537 123.964 123.655Z" fill="white"/>
<path d="M51.2722 123.655L57.6489 129.801C57.8624 130.007 58.0222 130.262 58.1144 130.544C58.2065 130.826 58.2283 131.126 58.1778 131.419L56.6694 140.174C56.6384 140.343 56.6558 140.517 56.7195 140.676C56.7831 140.835 56.8905 140.973 57.0293 141.074C57.168 141.175 57.3324 141.234 57.5035 141.245C57.6745 141.256 57.8453 141.219 57.996 141.137L65.9193 136.994C66.1783 136.862 66.4647 136.794 66.7553 136.794C67.0458 136.794 67.3322 136.862 67.5912 136.994L75.5145 141.137C75.6652 141.219 75.836 141.256 76.007 141.245C76.1781 141.234 76.3425 141.175 76.4812 141.074C76.62 140.973 76.7274 140.835 76.7911 140.676C76.8547 140.517 76.8721 140.343 76.8411 140.174L75.3146 131.433C75.2684 131.14 75.2939 130.839 75.3888 130.558C75.4837 130.276 75.6453 130.022 75.8597 129.816L82.2383 123.655C82.3576 123.537 82.4418 123.388 82.4815 123.225C82.5213 123.062 82.515 122.891 82.4634 122.731C82.4118 122.571 82.3169 122.429 82.1893 122.319C82.0617 122.21 81.9063 122.139 81.7404 122.112L72.8976 120.84C72.6076 120.8 72.3319 120.69 72.0943 120.519C71.8568 120.348 71.6646 120.121 71.5347 119.859L67.573 111.914C67.4986 111.76 67.3824 111.631 67.2378 111.54C67.0932 111.449 66.9259 111.401 66.7553 111.401C66.5846 111.401 66.4173 111.449 66.2727 111.54C66.1281 111.631 66.0119 111.76 65.9375 111.914L61.9758 119.855C61.8459 120.118 61.6537 120.344 61.4162 120.515C61.1786 120.686 60.9029 120.797 60.6129 120.837L51.7701 122.109C51.6035 122.134 51.4473 122.206 51.319 122.315C51.1907 122.425 51.0954 122.568 51.0437 122.728C50.9921 122.889 50.9861 123.061 51.0264 123.224C51.0667 123.388 51.1518 123.537 51.2722 123.655Z" fill="white"/>
</svg>
