<svg width="207" height="211" viewBox="0 0 207 211" fill="none" xmlns="http://www.w3.org/2000/svg">
<rect width="206.972" height="211" rx="102.5" fill="#7A65FF"/>
<path d="M111.024 61.875C114.598 61.875 118.091 62.9347 121.062 64.92C124.034 66.9053 126.349 69.7271 127.717 73.0285C129.084 76.3299 129.442 79.9628 128.745 83.4675C128.048 86.9723 126.327 90.1917 123.8 92.7185C121.273 95.2453 118.054 96.9661 114.549 97.6633C111.045 98.3604 107.412 98.0026 104.11 96.6351C100.809 95.2676 97.987 92.9518 96.0017 89.9806C94.0164 87.0094 92.9568 83.5162 92.9568 79.9427C92.9568 75.1509 94.8603 70.5553 98.2487 67.1669C101.637 63.7786 106.233 61.875 111.024 61.875ZM99.1957 138.551C100.782 137.839 102.296 136.975 103.716 135.972C104.596 135.398 105.214 134.5 105.436 133.473C105.657 132.445 105.464 131.372 104.898 130.487L99.527 122.205C99.2602 121.75 98.9018 121.355 98.4744 121.046C98.047 120.736 97.5601 120.519 97.0443 120.408C96.5286 120.297 95.9955 120.294 95.4786 120.4C94.9618 120.506 94.4725 120.718 94.042 121.022L91.784 122.528C91.0445 122.88 90.2032 122.955 89.4136 122.737C88.624 122.52 87.9388 122.027 87.4831 121.346L81.2461 111.667C80.7817 110.985 80.5903 110.153 80.7099 109.336C80.8294 108.52 81.2511 107.778 81.8915 107.258L84.3665 105.752C85.247 105.178 85.8653 104.28 86.0867 103.252C86.3082 102.225 86.1148 101.152 85.5488 100.267L80.1723 91.9866C79.5987 91.1061 78.7004 90.4878 77.6731 90.2664C76.6458 90.0449 75.5727 90.2383 74.6872 90.8043C73.1579 91.7454 71.7182 92.8249 70.3864 94.0294C64.0408 100.051 67.0527 108.655 75.7629 121.99C84.3551 135.433 91.4527 141.885 99.1957 138.551Z" fill="white"/>
<path d="M117.587 102.526H104.682C101.249 102.536 97.8593 103.302 94.7553 104.771C91.6513 106.239 88.9089 108.373 86.7232 111.021L90.3806 116.722L90.5957 116.615C92.1141 115.569 93.9133 115.007 95.7571 115.002C97.3202 115.009 98.8569 115.406 100.228 116.157C101.599 116.908 102.76 117.989 103.607 119.303L108.983 127.583C109.651 128.599 110.111 129.736 110.338 130.931C110.564 132.125 110.552 133.352 110.302 134.541C110.052 135.731 109.569 136.859 108.882 137.861C108.194 138.864 107.315 139.72 106.295 140.381C104.58 141.609 102.742 142.654 100.81 143.5C98.9083 144.313 96.8562 144.716 94.788 144.682C89.838 144.682 85.4324 142.207 81.4609 138.445V144.36C81.4609 144.36 90.2796 150.167 110.282 150.167H111.894C130.069 150.167 140.715 144.36 140.715 144.36V125.755C140.71 119.614 138.275 113.723 133.942 109.371C129.608 105.019 123.729 102.558 117.587 102.526Z" fill="white"/>
<path d="M110.242 99.0774C120.757 99.0774 129.28 90.5535 129.28 80.0387C129.28 69.5239 120.757 61 110.242 61C99.727 61 91.2031 69.5239 91.2031 80.0387C91.2031 90.5535 99.727 99.0774 110.242 99.0774Z" fill="white"/>
</svg>
