<svg width="150" height="148" viewBox="0 0 150 148" fill="none" xmlns="http://www.w3.org/2000/svg">
<rect width="149.42" height="148" rx="26" fill="#202020"/>
<path d="M109.449 65.1976L91.4924 49.4779H83.8363L92.4942 65.1976H109.449ZM57.7477 49.4779H50.0916L32.1523 65.1976H49.1069L57.7477 49.4779ZM88.7491 65.1976L80.0912 49.4779H61.4944L52.852 65.1976H88.7491ZM52.4906 68.4525L70.678 113.738L89.0778 68.4525H52.4906ZM31.2979 68.4525L65.4039 109.377L48.958 68.4525H31.2979ZM92.626 68.4525L76.1972 108.856L110.271 68.4525H92.626ZM36.7534 41.7916H39.641V44.6548C39.641 45.0866 39.8142 45.5007 40.1224 45.8061C40.4307 46.1114 40.8488 46.283 41.2848 46.283C41.7208 46.283 42.1389 46.1114 42.4471 45.8061C42.7554 45.5007 42.9286 45.0866 42.9286 44.6548V41.7916H45.8146C46.2416 41.7786 46.6467 41.6014 46.9442 41.2977C47.2416 40.9939 47.4079 40.5873 47.4079 40.1642C47.4079 39.741 47.2416 39.3345 46.9442 39.0307C46.6467 38.7269 46.2416 38.5497 45.8146 38.5368H42.9286V35.6782C42.9354 35.4603 42.8979 35.2432 42.8183 35.0399C42.7388 34.8366 42.6189 34.6512 42.4656 34.4947C42.3124 34.3382 42.129 34.2137 41.9263 34.1288C41.7236 34.0438 41.5057 34 41.2856 34C41.0654 34 40.8476 34.0438 40.6449 34.1288C40.4421 34.2137 40.2587 34.3382 40.1055 34.4947C39.9523 34.6512 39.8323 34.8366 39.7528 35.0399C39.6733 35.2432 39.6358 35.4603 39.6425 35.6782V38.5383H36.7534C36.3264 38.5513 35.9213 38.7284 35.6239 39.0322C35.3264 39.336 35.1601 39.7425 35.1601 40.1657C35.1601 40.5889 35.3264 40.9954 35.6239 41.2992C35.9213 41.603 36.3264 41.7786 36.7534 41.7916ZM116.53 84.547H113.642V81.6854C113.629 81.2624 113.45 80.8611 113.143 80.5666C112.837 80.272 112.426 80.1072 111.999 80.1072C111.572 80.1072 111.161 80.272 110.855 80.5666C110.548 80.8611 110.369 81.2624 110.356 81.6854V84.547H107.467C107.247 84.5403 107.028 84.5775 106.822 84.6562C106.617 84.735 106.43 84.8538 106.272 85.0056C106.114 85.1574 105.988 85.3391 105.903 85.5398C105.817 85.7406 105.773 85.9564 105.773 86.1744C105.773 86.3925 105.817 86.6083 105.903 86.8091C105.988 87.0099 106.114 87.1915 106.272 87.3433C106.43 87.4951 106.617 87.6139 106.822 87.6927C107.028 87.7714 107.247 87.8086 107.467 87.8019H110.356V90.662C110.349 90.8799 110.387 91.0969 110.466 91.3002C110.546 91.5035 110.666 91.6889 110.819 91.8455C110.972 92.002 111.156 92.1264 111.358 92.2114C111.561 92.2964 111.779 92.3402 111.999 92.3402C112.219 92.3402 112.437 92.2964 112.64 92.2114C112.842 92.1264 113.026 92.002 113.179 91.8455C113.332 91.6889 113.452 91.5035 113.532 91.3002C113.611 91.0969 113.649 90.8799 113.642 90.662V87.8019H116.53C116.957 87.7889 117.362 87.6117 117.659 87.3079C117.957 87.0042 118.123 86.5976 118.123 86.1744C118.123 85.7513 117.957 85.3447 117.659 85.041C117.362 84.7372 116.957 84.56 116.53 84.547Z" fill="#25D360"/>
</svg>
