<svg width="207" height="211" viewBox="0 0 207 211" fill="none" xmlns="http://www.w3.org/2000/svg">
<rect x="0.0195312" width="206.972" height="211" rx="102.5" fill="#F470FF"/>
<path fill-rule="evenodd" clip-rule="evenodd" d="M142.011 75.77V85.4015H135.225C127.66 85.4094 120.235 83.3618 113.743 79.4777L105.146 74.2807C104.646 73.9784 104.073 73.8186 103.489 73.8186C102.905 73.8186 102.332 73.9784 101.833 74.2807L93.2687 79.4463C86.7756 83.3274 79.3518 85.3753 71.7873 85.3723H65.0195V75.7637C65.0212 74.9131 65.3584 74.0974 65.958 73.4939C66.5575 72.8904 67.371 72.5479 68.2217 72.5407H71.8144C79.9633 72.5423 87.9576 70.317 94.9335 66.1051L103.516 61L112.081 66.1385C119.058 70.3363 127.046 72.5586 135.189 72.5679H138.811C139.655 72.5824 140.461 72.9242 141.058 73.5212C141.655 74.1182 141.997 74.9237 142.011 75.7679V75.77Z" fill="white"/>
<path fill-rule="evenodd" clip-rule="evenodd" d="M135.225 91.8865C126.495 91.8835 117.932 89.505 110.451 85.006L103.516 80.7949L96.5815 84.9224C89.1097 89.4457 80.5488 91.8529 71.8144 91.8865H65.0195V100.311C65.0392 110.058 67.8325 119.599 73.073 127.817C78.3135 136.036 85.7848 142.594 94.6139 146.724L103.514 150.852L112.358 146.724C121.202 142.606 128.689 136.053 133.942 127.833C139.195 119.613 141.997 110.066 142.02 100.311V91.8865H135.225ZM105.146 119.96C104.55 120.534 103.755 120.854 102.927 120.854C102.1 120.854 101.305 120.534 100.709 119.96L91.7271 110.978L96.2473 106.458L102.986 113.169L114.217 101.938L118.738 106.458L105.146 119.96Z" fill="white"/>
</svg>
